<?xml version="1.0" encoding="UTF-8" standalone="no"?>
<!-- Created with sK1/UniConvertor (http://sk1project.org/) -->

<svg
   xmlns:dc="http://purl.org/dc/elements/1.1/"
   xmlns:cc="http://creativecommons.org/ns#"
   xmlns:rdf="http://www.w3.org/1999/02/22-rdf-syntax-ns#"
   xmlns:svg="http://www.w3.org/2000/svg"
   xmlns="http://www.w3.org/2000/svg"
   xmlns:sodipodi="http://sodipodi.sourceforge.net/DTD/sodipodi-0.dtd"
   xmlns:inkscape="http://www.inkscape.org/namespaces/inkscape"
   width="595.276pt"
   height="841.89pt"
   viewBox="0 0 595.276 841.89"
   fill-rule="evenodd"
   id="svg2"
   version="1.1"
   inkscape:version="0.47 r22583"
   sodipodi:docname="Cartoes.svg"
   inkscape:export-filename="/home/marta/Ãrea de Trabalho/cartoes.png"
   inkscape:export-xdpi="72"
   inkscape:export-ydpi="72">
  <metadata
     id="metadata148">
    <rdf:RDF>
      <cc:Work
         rdf:about="">
        <dc:format>image/svg+xml</dc:format>
        <dc:type
           rdf:resource="http://purl.org/dc/dcmitype/StillImage" />
        <dc:title></dc:title>
      </cc:Work>
    </rdf:RDF>
  </metadata>
  <defs
     id="defs146">
    <inkscape:perspective
       sodipodi:type="inkscape:persp3d"
       inkscape:vp_x="0 : 526.18127 : 1"
       inkscape:vp_y="0 : 1000 : 0"
       inkscape:vp_z="744.09497 : 526.18127 : 1"
       inkscape:persp3d-origin="372.04749 : 350.78752 : 1"
       id="perspective150" />
  </defs>
  <sodipodi:namedview
     pagecolor="#ffffff"
     bordercolor="#666666"
     borderopacity="1"
     objecttolerance="10"
     gridtolerance="10"
     guidetolerance="10"
     inkscape:pageopacity="0"
     inkscape:pageshadow="2"
     inkscape:window-width="1024"
     inkscape:window-height="693"
     id="namedview144"
     showgrid="false"
     inkscape:zoom="0.89702926"
     inkscape:cx="360.67694"
     inkscape:cy="750.84949"
     inkscape:window-x="0"
     inkscape:window-y="24"
     inkscape:window-maximized="1"
     inkscape:current-layer="g88" />
  <g
     id="g4">
    <g
       id="g6">
      <g
         id="g8">
        <path
           style="stroke:none; fill:#ffcc00"
           d="M 264.421 282.177L 274.668 282.177L 274.668 305.599L 264.421 305.599L 264.421 282.177z"
           id="path10" />
        <path
           style="stroke:none; fill:#ffcc00"
           d="M 276.174 282.177L 286.421 282.177L 286.421 305.599L 276.174 305.599L 276.174 282.177z"
           id="path12" />
        <path
           style="stroke:none; fill:#ffcc00"
           d="M 287.927 282.177L 298.174 282.177L 298.174 305.599L 287.927 305.599L 287.927 282.177z"
           id="path14" />
        <path
           style="stroke:none; fill:#ffcc00"
           d="M 299.68 282.177L 309.927 282.177L 309.927 305.599L 299.68 305.599L 299.68 282.177z"
           id="path16" />
        <path
           style="stroke:none; fill:#ffcc00"
           d="M 264.421 307.053L 274.668 307.053L 274.668 330.474L 264.421 330.474L 264.421 307.053z"
           id="path18" />
        <path
           style="stroke:none; fill:#ffcc00"
           d="M 276.174 307.053L 286.421 307.053L 286.421 330.474L 276.174 330.474L 276.174 307.053z"
           id="path20" />
        <path
           style="stroke:none; fill:#ffcc00"
           d="M 287.927 307.053L 298.174 307.053L 298.174 330.474L 287.927 330.474L 287.927 307.053z"
           id="path22" />
        <path
           style="stroke:none; fill:#ffcc00"
           d="M 299.68 307.053L 309.927 307.053L 309.927 330.474L 299.68 330.474L 299.68 307.053z"
           id="path24" />
        <path
           style="stroke:none; fill:#1f211d"
           d="M 265.412 302.161L 265.412 284.723L 269.487 284.723C 270.242 284.723 270.82 284.865 271.218 285.153C 271.618 285.437 271.94 285.965 272.185 286.74C 272.43 287.512 272.552 288.454 272.552 289.562C 272.552 290.533 272.458 291.365 272.271 292.067C 272.084 292.77 271.826 293.338 271.5 293.777C 271.29 294.053 271.004 294.284 270.642 294.463C 270.932 294.678 271.144 294.893 271.279 295.108C 271.367 295.251 271.498 295.555 271.669 296.022C 271.841 296.493 271.955 296.85 272.012 297.106L 273.194 302.161L 270.431 302.161L 269.126 296.83C 268.96 296.144 268.812 295.693 268.682 295.486C 268.507 295.218 268.306 295.084 268.083 295.084L 267.868 295.084L 267.868 302.161L 265.412 302.161zM 267.868 291.787L 268.899 291.787C 269.01 291.787 269.225 291.71 269.546 291.552C 269.708 291.479 269.84 291.296 269.943 291.004C 270.045 290.711 270.096 290.374 270.096 289.992C 270.096 289.428 270.015 288.998 269.853 288.697C 269.691 288.393 269.387 288.243 268.941 288.243L 267.868 288.243L 267.868 291.787z"
           id="path26" />
        <path
           style="stroke:none; fill:#1f211d"
           d="M 278.365 284.723L 284.915 284.723L 284.915 288.446L 280.815 288.446L 280.815 291.219L 284.618 291.219L 284.618 294.775L 280.815 294.775L 280.815 298.21L 285.035 298.21L 285.035 302.161L 278.365 302.161L 278.365 284.723z"
           id="path28" />
        <path
           style="stroke:none; fill:#1f211d"
           d="M 289.832 284.723L 293.464 284.723C 294.178 284.723 294.757 284.938 295.199 285.364C 295.639 285.794 296.004 286.408 296.291 287.207C 296.578 288.011 296.787 288.941 296.917 290.005C 297.046 291.068 297.111 292.193 297.111 293.383C 297.111 295.246 297.015 296.692 296.822 297.719C 296.63 298.746 296.363 299.607 296.02 300.297C 295.68 300.992 295.313 301.454 294.921 301.686C 294.385 302.003 293.899 302.161 293.464 302.161L 289.832 302.161L 289.832 284.723zM 292.276 288.673L 292.276 298.198L 292.874 298.198C 293.386 298.198 293.749 298.076 293.965 297.825C 294.18 297.577 294.35 297.138 294.473 296.517C 294.595 295.896 294.655 294.885 294.655 293.488C 294.655 291.641 294.519 290.378 294.247 289.696C 293.972 289.014 293.519 288.673 292.885 288.673L 292.276 288.673z"
           id="path30" />
        <path
           style="stroke:none; fill:#1f211d"
           d="M 301.871 284.723L 308.421 284.723L 308.421 288.446L 304.321 288.446L 304.321 291.219L 308.124 291.219L 308.124 294.775L 304.321 294.775L 304.321 298.21L 308.54 298.21L 308.54 302.161L 301.871 302.161L 301.871 284.723z"
           id="path32" />
        <path
           style="stroke:none; fill:#1f211d"
           d="M 267.114 327.026L 267.114 322.231C 267.215 322.263 267.363 322.316 267.556 322.397C 268.333 322.706 268.866 322.86 269.149 322.86C 269.38 322.86 269.565 322.763 269.707 322.568C 269.849 322.373 269.921 322.125 269.921 321.825C 269.921 321.508 269.737 321.191 269.37 320.875C 269.199 320.733 269.066 320.615 268.969 320.517C 268.239 319.786 267.731 319.044 267.442 318.28C 267.155 317.521 267.011 316.575 267.011 315.45C 267.011 313.847 267.293 312.547 267.856 311.544C 268.418 310.542 269.158 310.038 270.078 310.038C 270.433 310.038 270.772 310.079 271.092 310.164C 271.411 310.245 271.711 310.367 271.988 310.525L 271.988 315.259C 271.638 315.028 271.326 314.862 271.054 314.756C 270.779 314.646 270.527 314.594 270.297 314.594C 270.041 314.594 269.845 314.667 269.711 314.813C 269.577 314.959 269.508 315.174 269.508 315.45C 269.508 315.808 269.711 316.161 270.114 316.51C 270.363 316.721 270.56 316.912 270.709 317.078C 271.367 317.817 271.816 318.54 272.057 319.251C 272.299 319.961 272.419 320.862 272.419 321.959C 272.419 323.741 272.137 325.109 271.573 326.059C 271.011 327.014 270.199 327.489 269.138 327.489C 268.67 327.489 268.276 327.452 267.956 327.375C 267.635 327.302 267.355 327.184 267.114 327.026z"
           id="path34" />
        <path
           style="stroke:none; fill:#1f211d"
           d="M 277.767 310.044L 280.212 310.044L 280.212 316.147L 282.884 316.147L 282.884 310.044L 285.339 310.044L 285.339 327.483L 282.884 327.483L 282.884 320.43L 280.212 320.43L 280.212 327.483L 277.767 327.483L 277.767 310.044z"
           id="path36" />
        <path
           style="stroke:none; fill:#1f211d"
           d="M 289.186 318.773C 289.186 315.927 289.547 313.711 290.265 312.127C 290.986 310.54 291.987 309.748 293.271 309.748C 294.588 309.748 295.603 310.527 296.316 312.087C 297.027 313.642 297.384 315.826 297.384 318.631C 297.384 320.67 297.228 322.342 296.916 323.646C 296.605 324.949 296.156 325.964 295.568 326.691C 294.979 327.418 294.247 327.779 293.369 327.779C 292.478 327.779 291.739 327.466 291.153 326.841C 290.569 326.212 290.096 325.221 289.731 323.865C 289.368 322.509 289.186 320.812 289.186 318.773zM 291.632 318.798C 291.632 320.56 291.779 321.823 292.076 322.594C 292.372 323.362 292.778 323.747 293.288 323.747C 293.813 323.747 294.22 323.37 294.507 322.619C 294.795 321.863 294.94 320.511 294.94 318.562C 294.94 316.918 294.789 315.72 294.489 314.961C 294.189 314.206 293.782 313.828 293.266 313.828C 292.774 313.828 292.378 314.21 292.08 314.981C 291.781 315.749 291.632 317.024 291.632 318.798z"
           id="path38" />
        <path
           style="stroke:none; fill:#1f211d"
           d="M 301.866 310.044L 305.929 310.044C 306.813 310.044 307.476 310.507 307.916 311.437C 308.356 312.363 308.577 313.686 308.577 315.395C 308.577 317.158 308.338 318.534 307.857 319.525C 307.376 320.515 306.643 321.011 305.658 321.011L 304.321 321.011L 304.321 327.483L 301.866 327.483L 301.866 310.044zM 304.321 317.478L 304.919 317.478C 305.391 317.478 305.721 317.3 305.912 316.938C 306.102 316.577 306.198 316.114 306.198 315.554C 306.198 315.006 306.115 314.539 305.949 314.161C 305.785 313.78 305.474 313.589 305.017 313.589L 304.321 313.589L 304.321 317.478z"
           id="path40" />
      </g>
      <path
         style="stroke:none; fill:#2c2c2b"
         d="M 262.97 281.084L 311.215 281.084L 311.215 331.786L 262.97 331.786L 262.97 281.084zM 263.503 281.681L 310.682 281.681L 310.682 331.189L 263.503 331.189L 263.503 281.681z"
         id="path42" />
    </g>
    <g
       id="g44">
      <g
         id="g46">
        <g
           id="g48">
          <path
             style="stroke:none; fill:#005c9a"
             d="M 240.188 156.586L 240.188 200.195L 309.884 200.195L 309.884 156.586L 240.188 156.586z"
             id="path50" />
          <path
             style="stroke:none; fill:#ffffff"
             d="M 309.069 157.4L 309.069 199.38L 241.002 199.38L 241.002 157.4L 309.069 157.4z"
             id="path52" />
          <path
             style="stroke:none; fill:#005c9a"
             d="M 306.9 197.552L 306.9 159.437L 243.033 159.437L 243.033 197.552L 306.9 197.552z"
             id="path54" />
        </g>
        <g
           id="g56">
          <path
             style="stroke:none; fill:#f8ad27"
             d="M 260.511 182.462C 267.283 179.56 276.783 176.93 289.365 179.563L 289.499 176.372C 276.223 174.923 266.696 179.151 260.511 182.147L 260.511 182.462z"
             id="path58" />
          <path
             style="stroke:none; fill:#ffffff"
             d="M 248.287 184.808L 254.667 184.808L 254.667 186.731L 250.703 186.731L 250.677 188.506L 254.628 188.506L 254.628 190.348L 250.663 190.348L 250.678 192.124L 254.588 192.124L 254.588 194.046L 248.288 194.046L 248.287 184.808z"
             id="path60" />
          <path
             style="stroke:none; fill:#ffffff"
             d="M 256.27 184.034L 258.593 184.034L 258.601 194.046L 256.279 194.046L 256.27 184.034z"
             id="path62" />
          <path
             style="stroke:none; fill:#ffffff"
             d="M 266.584 193.286C 265.795 193.953 264.594 194.287 263.527 194.287C 261.084 194.287 259.976 192.551 259.976 190.829C 259.976 188.8 261.497 187.078 263.593 187.078C 266.157 187.078 266.958 188.893 266.958 191.203L 262.298 191.203C 262.298 191.723 262.633 192.605 263.914 192.605C 264.728 192.605 265.182 192.364 265.81 191.937L 266.584 193.286zM 264.875 189.841C 264.875 189.147 264.541 188.519 263.767 188.519C 263.033 188.519 262.472 189.174 262.325 189.841L 264.875 189.841z"
             id="path64" />
          <path
             style="stroke:none; fill:#ffffff"
             d="M 274.006 193.592C 273.366 193.993 272.311 194.287 271.536 194.287C 269.4 194.287 267.866 193.059 267.866 190.842C 267.866 188.573 269.387 187.078 271.683 187.078C 272.484 187.078 273.446 187.332 273.966 187.665L 273.219 189.186C 272.871 189.04 272.497 188.92 272.123 188.92C 270.963 188.92 270.188 189.614 270.188 190.722C 270.188 191.684 270.936 192.444 271.923 192.444C 272.364 192.444 272.805 192.244 273.178 192.058L 274.006 193.592z"
             id="path66" />
          <path
             style="stroke:none; fill:#ffffff"
             d="M 274.865 187.318L 275.915 187.318L 275.906 185.035L 278.149 185.035L 278.095 187.318L 280.004 187.318L 279.965 189L 278.056 189C 278.056 189.935 277.989 190.922 277.989 191.496C 277.989 192.084 278.136 192.364 278.656 192.364C 278.977 192.364 279.243 192.204 279.511 192.044L 280.017 193.619C 279.338 194.033 278.51 194.287 277.722 194.287C 275.839 194.287 275.746 193.098 275.746 191.55C 275.746 190.722 275.813 189.895 275.813 189L 274.812 189L 274.865 187.318z"
             id="path68" />
          <path
             style="stroke:none; fill:#ffffff"
             d="M 281.194 187.318L 283.517 187.318L 283.517 188.266L 283.543 188.266C 283.89 187.692 284.344 187.132 285.251 187.132C 285.505 187.132 285.772 187.158 286.012 187.211L 285.705 189.508C 285.478 189.44 285.224 189.374 284.877 189.374C 284.103 189.374 283.502 190.028 283.502 190.161L 283.463 194.046L 281.14 194.046L 281.194 187.318z"
             id="path70" />
          <path
             style="stroke:none; fill:#ffffff"
             d="M 290.22 187.078C 292.704 187.078 293.985 188.654 293.985 190.683C 293.985 192.712 292.704 194.287 290.22 194.287C 287.737 194.287 286.456 192.712 286.456 190.683C 286.456 188.654 287.737 187.078 290.22 187.078zM 290.22 192.525C 291.328 192.525 291.661 191.563 291.661 190.683C 291.661 189.801 291.328 188.84 290.22 188.84C 289.112 188.84 288.779 189.801 288.779 190.683C 288.779 191.563 289.112 192.525 290.22 192.525z"
             id="path72" />
          <path
             style="stroke:none; fill:#ffffff"
             d="M 295.247 187.318L 297.57 187.318L 297.57 188.052C 298.104 187.532 298.918 187.078 299.746 187.078C 301.174 187.078 301.948 187.865 301.948 189.708C 301.948 191.083 301.936 192.564 301.921 194.046L 299.599 194.046C 299.613 192.752 299.626 191.443 299.626 190.055C 299.626 189.508 299.479 189.081 298.785 189.081C 298.411 189.081 297.877 189.401 297.57 189.694L 297.558 194.046L 295.193 194.046L 295.247 187.318z"
             id="path74" />
        </g>
      </g>
      <g
         id="g76">
        <path
           style="stroke:none; fill:#ffffff"
           d="M 267.394 173.459L 270.329 163.783L 272.947 163.783L 270.012 173.459L 267.394 173.459z"
           id="path78" />
        <path
           style="stroke:none; fill:#ffffff"
           d="M 266.223 163.785L 263.868 167.887C 263.269 168.962 262.917 169.504 262.75 170.183L 262.714 170.183C 262.755 169.323 262.635 168.266 262.624 167.669L 262.363 163.785L 257.956 163.785L 257.91 164.046C 259.043 164.046 259.714 164.614 259.9 165.778L 260.759 173.459L 263.471 173.459L 268.957 163.785L 266.223 163.785z"
           id="path80" />
        <path
           style="stroke:none; fill:#ffffff"
           d="M 286.587 173.459L 286.514 172.02L 283.245 172.018L 282.575 173.459L 279.733 173.459L 284.887 163.801L 288.378 163.801L 289.25 173.459L 286.587 173.459zM 286.286 167.752C 286.257 167.036 286.232 166.066 286.281 165.478L 286.243 165.478C 286.084 165.959 285.398 167.4 285.097 168.11L 284.123 170.231L 286.42 170.231L 286.286 167.752z"
           id="path82" />
        <path
           style="stroke:none; fill:#ffffff"
           d="M 275.697 173.734C 273.848 173.734 272.621 173.148 271.745 172.625L 272.992 170.72C 273.778 171.16 274.396 171.667 275.816 171.667C 276.273 171.667 276.712 171.549 276.963 171.116C 277.327 170.486 276.88 170.148 275.856 169.569L 275.352 169.24C 273.834 168.205 273.179 167.221 273.893 165.502C 274.35 164.403 275.554 163.571 277.541 163.571C 278.912 163.571 280.197 164.163 280.945 164.742L 279.512 166.424C 278.782 165.833 278.176 165.534 277.482 165.534C 276.929 165.534 276.51 165.748 276.365 166.034C 276.092 166.576 276.454 166.943 277.25 167.439L 277.851 167.821C 279.692 168.982 280.13 170.199 279.669 171.338C 278.875 173.297 277.321 173.734 275.697 173.734z"
           id="path84" />
      </g>
    </g>
    <path
       style="stroke:none; fill:#009fe0"
       d="M 367.883 302.56L 367.262 303.856L 364.413 303.856C 363.225 303.856 362.631 302.803 362.631 300.697C 362.631 298.536 363.306 297.456 364.643 297.456L 367.101 297.456L 367.101 299.076L 365.237 299.076C 364.683 299.076 364.413 299.616 364.413 300.697C 364.413 301.777 364.683 302.317 365.237 302.317L 365.953 302.317L 368.127 297.456L 370.584 297.456L 372.677 302.317L 372.677 297.456L 375.283 297.456L 377.7 301.331L 377.7 297.456L 379.563 297.456L 379.563 303.856L 377.065 303.856L 374.54 300.022L 374.54 303.856L 371.286 303.856L 370.584 302.56L 367.883 302.56zM 361.997 297.456L 361.997 303.856L 360.133 303.856L 360.133 297.456L 361.997 297.456zM 355.354 301.561L 355.354 303.856L 353.49 303.856L 353.49 297.456L 358.162 297.456C 359.026 297.456 359.458 298.05 359.458 299.225C 359.458 300.21 359.283 300.778 358.905 300.926C 359.283 301.115 359.458 301.358 359.458 301.642L 359.458 303.856L 357.608 303.856L 357.608 302.317C 357.608 301.817 357.392 301.561 356.974 301.561L 355.354 301.561zM 352.734 297.456L 352.734 298.995L 349.332 298.995L 349.332 299.941L 352.653 299.941L 352.653 301.412L 349.332 301.412L 349.332 302.398L 352.734 302.398L 352.734 303.856L 347.482 303.856L 347.482 297.456L 352.734 297.456zM 351.627 307.974L 357.608 307.974C 358.581 307.974 359.067 308.649 359.067 309.986C 359.067 311.336 358.581 312.012 357.608 312.012L 354.949 312.012L 354.949 314.307L 351.789 314.307L 350.007 312.362L 348.035 314.307L 341.973 314.307L 341.973 307.974L 348.63 307.974L 350.007 309.433L 351.627 307.974zM 333.075 302.317L 332.481 303.856L 330.47 303.856L 333.237 297.456L 335.492 297.456L 337.828 302.398L 337.828 297.456L 340.353 297.456L 342.378 301.007L 344.39 297.456L 346.686 297.456L 346.686 303.856L 344.822 303.856L 344.822 300.184L 342.932 303.856L 341.744 303.856L 339.718 300.184L 339.718 303.856L 336.64 303.856L 335.803 302.317L 333.075 302.317zM 368.289 301.088L 370.179 301.088L 369.274 299.076L 368.289 301.088zM 355.354 300.103L 357.055 300.103C 357.473 300.103 357.689 299.913 357.689 299.549C 357.689 299.185 357.473 298.995 357.055 298.995L 355.354 298.995L 355.354 300.103zM 354.949 310.58L 356.812 310.58C 357.176 310.58 357.366 310.418 357.366 310.067C 357.366 309.648 357.176 309.433 356.812 309.433L 354.949 309.433L 354.949 310.58zM 351.033 310.904L 353.058 313.078L 353.058 308.96L 351.033 310.904zM 347.239 312.835L 349.021 310.904L 347.563 309.433L 343.836 309.433L 343.836 310.391L 347.239 310.391L 347.239 311.849L 343.836 311.849L 343.836 312.835L 347.239 312.835zM 333.548 300.859L 335.249 300.859L 334.344 298.915L 333.548 300.859zM 365.629 312.092L 365.629 314.307L 363.779 314.307L 363.779 312.754C 363.779 312.254 363.576 312.012 363.185 312.012L 361.484 312.012L 361.484 314.307L 359.62 314.307L 359.62 307.974L 364.332 307.974C 365.197 307.974 365.629 308.542 365.629 309.676C 365.629 310.648 365.453 311.215 365.075 311.377C 365.453 311.565 365.629 311.796 365.629 312.092zM 361.484 310.58L 363.185 310.58C 363.63 310.58 363.86 310.391 363.86 309.986C 363.86 309.621 363.63 309.433 363.185 309.433L 361.484 309.433L 361.484 310.58zM 371.799 312.835L 371.799 314.307L 366.506 314.307L 366.506 307.974L 371.799 307.974L 371.799 309.433L 368.37 309.433L 368.37 310.391L 371.691 310.391L 371.691 311.849L 368.37 311.849L 368.37 312.835L 371.799 312.835zM 373.986 307.974L 377.537 307.974L 377.537 309.433L 374.459 309.433C 374.081 309.433 373.905 309.567 373.905 309.837C 373.905 309.986 374.54 310.243 375.796 310.58C 377.065 310.931 377.7 311.552 377.7 312.443C 377.7 313.685 377.106 314.307 375.917 314.307L 372.353 314.307L 372.353 312.835L 375.445 312.835C 375.863 312.835 376.079 312.713 376.079 312.443C 376.079 312.254 375.418 311.984 374.095 311.633C 372.785 311.282 372.123 310.729 372.123 309.986C 372.123 308.649 372.744 307.974 373.986 307.974zM 383.276 309.433L 380.116 309.433C 379.738 309.433 379.563 309.567 379.563 309.837C 379.563 309.986 380.198 310.243 381.453 310.58C 382.722 310.931 383.357 311.552 383.357 312.443C 383.357 313.685 382.763 314.307 381.574 314.307L 378.01 314.307L 378.01 312.835L 381.102 312.835C 381.52 312.835 381.736 312.713 381.736 312.443C 381.736 312.254 381.075 311.984 379.752 311.633C 378.442 311.282 377.781 310.729 377.781 309.986C 377.781 308.649 378.402 307.974 379.644 307.974L 383.276 307.974L 383.276 309.433zM 358.594 296.7L 343.607 296.7L 342.378 298.915L 341.15 296.7L 336.951 296.7L 336.951 298.32L 336.208 296.7L 332.562 296.7L 330.47 301.561L 330.47 280.12L 383.276 280.12L 383.276 307.069L 378.766 307.069C 378.51 307.069 378.307 307.204 378.172 307.502L 378.172 307.069L 373.311 307.069C 373.176 307.069 372.96 307.204 372.677 307.502L 372.677 307.069L 365.71 307.069L 365.71 307.583C 365.48 307.232 365.264 307.069 365.075 307.069L 358.905 307.069L 358.905 307.583C 358.675 307.232 358.445 307.069 358.243 307.069L 351.114 307.069L 350.088 308.055L 349.183 307.069L 341.15 307.069L 341.15 315.09L 348.63 315.09L 350.007 313.713L 351.357 315.09L 355.826 315.09L 355.826 312.835L 358.675 312.835L 358.675 315.09L 362.307 315.09L 362.307 312.916L 362.712 312.916C 362.969 312.916 363.104 313.024 363.104 313.24L 363.104 315.09L 376.309 315.09C 376.633 315.09 376.93 314.955 377.227 314.698L 377.227 315.09L 382.56 315.09C 382.803 315.09 383.033 314.941 383.276 314.617L 383.276 332.264L 330.47 332.264L 330.47 304.653L 333.075 304.653L 333.629 303.114L 335.182 303.114L 335.965 304.653L 340.515 304.653L 340.515 303.424L 341.231 304.653L 343.526 304.653L 344.228 303.424L 344.228 304.653L 356.137 304.653L 356.137 302.479L 356.542 302.479C 356.825 302.479 356.974 302.587 356.974 302.789L 356.974 304.653L 362.78 304.653L 362.78 304.099C 363.077 304.464 363.347 304.653 363.617 304.653L 367.965 304.653L 368.477 303.424L 370.098 303.424L 370.651 304.653L 375.364 304.653L 375.364 302.952L 376.552 304.653L 380.467 304.653L 380.467 296.7L 376.795 296.7L 376.795 298.401L 375.755 296.7L 371.961 296.7L 371.961 298.239L 371.138 296.7L 363.617 296.7C 363.347 296.7 363.077 296.876 362.78 297.213L 362.78 296.7L 359.458 296.7L 359.458 297.213L 358.594 296.7z"
       id="path86" />
    <g
       id="g88">
      <path
         style="stroke:none; fill:#e21c2a"
         d="M 240.57 224.213C 251.159 224.213 259.797 232.85 259.797 243.44C 259.797 254.029 251.159 262.666 240.57 262.666C 229.98 262.666 221.343 254.029 221.343 243.44C 221.343 232.85 229.98 224.213 240.57 224.213z"
         id="path90" />
      <path
         style="stroke:none;fill:#ffb380"
         d="M 265.949 224.213C 276.539 224.213 285.176 232.85 285.176 243.44C 285.176 254.029 276.539 262.666 265.949 262.666C 260.402 262.666 255.391 260.294 251.877 256.514L 254.278 256.514C 254.564 256.514 254.797 256.28 254.797 255.995L 254.797 255.879C 254.797 255.593 254.564 255.36 254.278 255.36L 250.886 255.36C 250.308 254.632 249.782 253.86 249.313 253.053L 256.485 253.053C 256.826 253.053 257.105 252.819 257.105 252.534L 257.105 252.418C 257.105 252.133 256.826 251.899 256.485 251.899L 248.695 251.899C 248.298 251.095 247.956 250.261 247.674 249.4L 257.773 249.4C 258.146 249.4 258.45 249.166 258.45 248.881L 258.45 248.765C 258.45 248.479 258.146 248.246 257.773 248.246L 247.334 248.246C 247.076 247.25 246.897 246.221 246.803 245.17L 258.324 245.17C 258.711 245.17 259.027 244.936 259.027 244.651L 259.027 244.535C 259.027 244.25 258.711 244.016 258.324 244.016L 246.732 244.016C 246.726 243.824 246.722 243.632 246.722 243.44C 246.722 242.527 246.788 241.628 246.913 240.748L 257.773 240.748C 258.146 240.748 258.45 240.514 258.45 240.229L 258.45 240.113C 258.45 239.827 258.146 239.594 257.773 239.594L 247.11 239.594C 247.327 238.535 247.632 237.507 248.016 236.518L 256.485 236.518C 256.826 236.518 257.105 236.284 257.105 235.999L 257.105 235.883C 257.105 235.598 256.826 235.364 256.485 235.364L 248.509 235.364C 248.914 234.494 249.382 233.659 249.908 232.865L 254.278 232.865C 254.564 232.865 254.797 232.631 254.797 232.345L 254.797 232.23C 254.797 231.945 254.564 231.711 254.278 231.711L 250.734 231.711C 254.255 227.155 259.767 224.213 265.949 224.213z"
         id="path92" />
      <path
         style="stroke:none; fill:#2c2c2b"
         d="M 224.705 249.728L 226.094 239.921L 228.711 239.921L 229.335 246.612L 231.835 239.921L 234.458 239.921L 233.068 249.728L 231.446 249.728L 232.539 242.009L 229.725 249.728L 228.042 249.728L 227.421 242.009L 226.328 249.728L 224.705 249.728zM 235.945 244.792L 234.482 244.484C 234.749 243.797 235.111 243.29 235.571 242.958C 236.033 242.63 236.669 242.463 237.485 242.463C 238.226 242.463 238.762 242.563 239.097 242.762C 239.43 242.961 239.651 243.212 239.755 243.518C 239.858 243.824 239.853 244.384 239.738 245.201L 239.409 247.395C 239.321 248.018 239.282 248.479 239.294 248.776C 239.305 249.071 239.361 249.391 239.457 249.728L 237.814 249.728C 237.79 249.603 237.761 249.418 237.734 249.174C 237.723 249.062 237.713 248.989 237.707 248.953C 237.378 249.265 237.043 249.498 236.698 249.655C 236.353 249.811 235.997 249.888 235.63 249.888C 234.985 249.888 234.503 249.689 234.188 249.295C 233.871 248.898 233.757 248.395 233.843 247.787C 233.899 247.388 234.035 247.03 234.249 246.714C 234.463 246.399 234.735 246.16 235.063 245.993C 235.391 245.826 235.854 245.68 236.445 245.555C 237.243 245.39 237.803 245.235 238.122 245.094L 238.148 244.906C 238.199 244.543 238.157 244.287 238.022 244.132C 237.887 243.979 237.601 243.902 237.164 243.902C 236.867 243.902 236.628 243.968 236.444 244.1C 236.26 244.231 236.095 244.461 235.945 244.792zM 237.948 246.317C 237.726 246.398 237.375 246.493 236.898 246.605C 236.422 246.717 236.106 246.827 235.948 246.932C 235.707 247.107 235.567 247.327 235.53 247.594C 235.492 247.859 235.547 248.084 235.693 248.277C 235.84 248.468 236.046 248.565 236.314 248.565C 236.614 248.565 236.914 248.453 237.218 248.231C 237.444 248.062 237.604 247.854 237.702 247.607C 237.768 247.448 237.832 247.142 237.895 246.691L 237.948 246.317zM 239.647 247.701L 241.354 247.414C 241.372 247.779 241.476 248.057 241.667 248.247C 241.856 248.436 242.145 248.532 242.536 248.532C 242.965 248.532 243.3 248.443 243.542 248.262C 243.706 248.139 243.803 247.971 243.833 247.763C 243.853 247.619 243.83 247.5 243.764 247.407C 243.694 247.317 243.52 247.236 243.245 247.16C 241.953 246.827 241.147 246.521 240.828 246.244C 240.385 245.86 240.213 245.326 240.31 244.643C 240.397 244.03 240.684 243.511 241.173 243.093C 241.662 242.673 242.357 242.463 243.258 242.463C 244.117 242.463 244.733 242.622 245.107 242.938C 245.479 243.255 245.699 243.724 245.768 244.345L 244.157 244.671C 244.13 244.395 244.033 244.182 243.866 244.036C 243.7 243.888 243.444 243.815 243.097 243.815C 242.659 243.815 242.337 243.883 242.128 244.022C 241.989 244.121 241.909 244.248 241.887 244.404C 241.868 244.539 241.906 244.651 242.004 244.744C 242.135 244.87 242.626 245.045 243.479 245.274C 244.33 245.5 244.908 245.778 245.212 246.11C 245.511 246.445 245.618 246.911 245.534 247.507C 245.442 248.158 245.122 248.72 244.574 249.187C 244.028 249.655 243.285 249.888 242.344 249.888C 241.488 249.888 240.841 249.692 240.397 249.299C 239.954 248.909 239.705 248.375 239.647 247.701zM 249.765 242.626L 249.553 244.123L 248.42 244.123L 248.014 246.987C 247.932 247.566 247.894 247.904 247.903 248C 247.912 248.096 247.949 248.174 248.017 248.237C 248.085 248.3 248.174 248.332 248.283 248.332C 248.439 248.332 248.669 248.269 248.978 248.15L 248.914 249.608C 248.5 249.795 248.051 249.888 247.561 249.888C 247.263 249.888 247.001 249.831 246.776 249.72C 246.553 249.605 246.398 249.457 246.311 249.277C 246.224 249.096 246.182 248.852 246.181 248.544C 246.177 248.327 246.222 247.884 246.316 247.219L 246.755 244.123L 245.992 244.123L 246.204 242.626L 246.967 242.626L 247.167 241.212L 248.987 240.116L 248.632 242.626L 249.765 242.626zM 253.075 247.469L 254.686 247.781C 254.375 248.468 253.966 248.991 253.456 249.35C 252.947 249.71 252.347 249.888 251.658 249.888C 250.567 249.888 249.817 249.487 249.407 248.678C 249.086 248.032 248.994 247.215 249.133 246.231C 249.3 245.052 249.703 244.13 250.342 243.463C 250.978 242.796 251.713 242.463 252.544 242.463C 253.478 242.463 254.164 242.812 254.605 243.511C 255.045 244.21 255.152 245.279 254.926 246.719L 250.766 246.719C 250.699 247.276 250.77 247.71 250.983 248.018C 251.195 248.328 251.494 248.484 251.875 248.484C 252.135 248.484 252.364 248.404 252.564 248.245C 252.764 248.082 252.936 247.825 253.075 247.469zM 253.439 245.568C 253.504 245.022 253.44 244.609 253.244 244.326C 253.048 244.043 252.78 243.902 252.441 243.902C 252.078 243.902 251.758 244.053 251.48 244.352C 251.202 244.648 251.027 245.054 250.959 245.568L 253.439 245.568zM 256.652 249.728L 254.992 249.728L 255.999 242.626L 257.539 242.626L 257.396 243.634C 257.728 243.157 258.01 242.842 258.241 242.692C 258.474 242.541 258.723 242.463 258.991 242.463C 259.371 242.463 259.717 242.582 260.034 242.819L 259.288 244.456C 259.038 244.253 258.793 244.151 258.553 244.151C 258.319 244.151 258.113 244.221 257.931 244.367C 257.748 244.511 257.585 244.774 257.439 245.153C 257.292 245.532 257.134 246.326 256.963 247.535L 256.652 249.728zM 265.046 246.123L 266.653 246.731C 266.242 247.802 265.697 248.597 265.018 249.117C 264.342 249.635 263.537 249.895 262.608 249.895C 261.458 249.895 260.576 249.45 259.961 248.561C 259.348 247.671 259.149 246.454 259.367 244.913C 259.599 243.281 260.151 242.013 261.023 241.109C 261.895 240.207 262.937 239.755 264.151 239.755C 265.209 239.755 266.02 240.109 266.581 240.819C 266.917 241.237 267.126 241.84 267.212 242.626L 265.414 243.093C 265.385 242.584 265.228 242.183 264.944 241.888C 264.661 241.593 264.286 241.447 263.823 241.447C 263.181 241.447 262.622 241.708 262.149 242.23C 261.676 242.751 261.356 243.595 261.191 244.765C 261.015 246.004 261.085 246.888 261.407 247.414C 261.725 247.941 262.2 248.203 262.829 248.203C 263.295 248.203 263.717 248.037 264.1 247.701C 264.482 247.367 264.797 246.841 265.046 246.123zM 268.869 244.792L 267.406 244.484C 267.673 243.797 268.035 243.29 268.495 242.958C 268.957 242.63 269.593 242.463 270.408 242.463C 271.15 242.463 271.686 242.563 272.021 242.762C 272.354 242.961 272.575 243.212 272.679 243.518C 272.782 243.824 272.777 244.384 272.662 245.201L 272.333 247.395C 272.245 248.018 272.206 248.479 272.218 248.776C 272.228 249.071 272.285 249.391 272.381 249.728L 270.738 249.728C 270.714 249.603 270.685 249.418 270.658 249.174C 270.647 249.062 270.637 248.989 270.63 248.953C 270.302 249.265 269.967 249.498 269.622 249.655C 269.277 249.811 268.921 249.888 268.554 249.888C 267.909 249.888 267.427 249.689 267.112 249.295C 266.795 248.898 266.681 248.395 266.767 247.787C 266.823 247.388 266.959 247.03 267.173 246.714C 267.387 246.399 267.659 246.16 267.986 245.993C 268.315 245.826 268.778 245.68 269.369 245.555C 270.167 245.39 270.727 245.235 271.045 245.094L 271.072 244.906C 271.124 244.543 271.081 244.287 270.946 244.132C 270.811 243.979 270.525 243.902 270.087 243.902C 269.791 243.902 269.552 243.968 269.368 244.1C 269.184 244.231 269.018 244.461 268.869 244.792zM 270.872 246.317C 270.65 246.398 270.299 246.493 269.822 246.605C 269.346 246.717 269.03 246.827 268.872 246.932C 268.631 247.107 268.491 247.327 268.454 247.594C 268.416 247.859 268.471 248.084 268.617 248.277C 268.764 248.468 268.97 248.565 269.238 248.565C 269.538 248.565 269.838 248.453 270.141 248.231C 270.367 248.062 270.528 247.854 270.626 247.607C 270.692 247.448 270.755 247.142 270.82 246.691L 270.872 246.317zM 274.458 249.728L 272.798 249.728L 273.804 242.626L 275.345 242.626L 275.202 243.634C 275.534 243.157 275.816 242.842 276.047 242.692C 276.28 242.541 276.529 242.463 276.797 242.463C 277.176 242.463 277.522 242.582 277.84 242.819L 277.094 244.456C 276.844 244.253 276.599 244.151 276.359 244.151C 276.125 244.151 275.919 244.221 275.737 244.367C 275.553 244.511 275.391 244.774 275.245 245.153C 275.098 245.532 274.94 246.326 274.769 247.535L 274.458 249.728zM 282.54 249.728L 280.999 249.728L 281.147 248.685C 280.833 249.091 280.489 249.393 280.111 249.592C 279.735 249.791 279.37 249.888 279.015 249.888C 278.294 249.888 277.722 249.56 277.302 248.902C 276.883 248.245 276.755 247.327 276.922 246.15C 277.092 244.945 277.471 244.03 278.06 243.404C 278.649 242.778 279.327 242.463 280.091 242.463C 280.791 242.463 281.351 242.794 281.769 243.454L 282.27 239.921L 283.929 239.921L 282.54 249.728zM 278.635 246.023C 278.527 246.781 278.543 247.329 278.68 247.669C 278.877 248.158 279.217 248.404 279.697 248.404C 280.08 248.404 280.431 248.22 280.752 247.852C 281.07 247.484 281.282 246.934 281.386 246.203C 281.501 245.388 281.453 244.799 281.247 244.441C 281.037 244.081 280.73 243.902 280.323 243.902C 279.929 243.902 279.576 244.08 279.259 244.433C 278.943 244.787 278.735 245.317 278.635 246.023z"
         id="path94" />
      <path
         style="stroke:none; fill:#ffffff"
         d="M 223.993 249.016L 225.382 239.209L 227.999 239.209L 228.622 245.9L 231.123 239.209L 233.746 239.209L 232.356 249.016L 230.733 249.016L 231.827 241.297L 229.013 249.016L 227.33 249.016L 226.709 241.297L 225.616 249.016L 223.993 249.016zM 235.233 244.08L 233.77 243.772C 234.037 243.085 234.399 242.578 234.859 242.246C 235.321 241.918 235.957 241.751 236.772 241.751C 237.514 241.751 238.05 241.851 238.385 242.05C 238.718 242.249 238.939 242.5 239.043 242.806C 239.146 243.112 239.141 243.671 239.025 244.489L 238.697 246.683C 238.609 247.306 238.569 247.767 238.582 248.064C 238.593 248.359 238.648 248.678 238.745 249.016L 237.102 249.016C 237.078 248.891 237.049 248.706 237.022 248.462C 237.011 248.35 237.001 248.277 236.995 248.241C 236.666 248.553 236.33 248.786 235.986 248.943C 235.641 249.099 235.285 249.176 234.918 249.176C 234.273 249.176 233.791 248.977 233.476 248.583C 233.159 248.186 233.045 247.683 233.131 247.075C 233.187 246.676 233.323 246.318 233.536 246.002C 233.751 245.687 234.023 245.448 234.351 245.281C 234.679 245.114 235.141 244.968 235.733 244.843C 236.531 244.678 237.091 244.523 237.41 244.381L 237.436 244.194C 237.487 243.831 237.445 243.575 237.31 243.42C 237.175 243.267 236.889 243.19 236.452 243.19C 236.155 243.19 235.916 243.255 235.732 243.388C 235.548 243.519 235.383 243.749 235.233 244.08zM 237.236 245.605C 237.014 245.685 236.663 245.781 236.185 245.893C 235.71 246.005 235.394 246.115 235.236 246.22C 234.995 246.395 234.855 246.615 234.817 246.881C 234.78 247.146 234.835 247.372 234.981 247.565C 235.128 247.756 235.333 247.852 235.602 247.852C 235.902 247.852 236.202 247.74 236.506 247.519C 236.732 247.35 236.891 247.142 236.99 246.895C 237.056 246.735 237.12 246.43 237.183 245.979L 237.236 245.605zM 238.935 246.989L 240.642 246.702C 240.66 247.067 240.764 247.345 240.955 247.535C 241.144 247.724 241.433 247.82 241.824 247.82C 242.253 247.82 242.588 247.731 242.829 247.55C 242.994 247.427 243.091 247.258 243.12 247.051C 243.141 246.907 243.118 246.788 243.052 246.694C 242.982 246.605 242.808 246.524 242.532 246.448C 241.241 246.115 240.435 245.809 240.115 245.532C 239.673 245.148 239.501 244.614 239.598 243.931C 239.685 243.318 239.972 242.799 240.461 242.381C 240.95 241.961 241.645 241.751 242.546 241.751C 243.405 241.751 244.021 241.91 244.394 242.226C 244.767 242.543 244.987 243.011 245.056 243.632L 243.445 243.959C 243.417 243.683 243.321 243.47 243.154 243.324C 242.987 243.176 242.732 243.103 242.385 243.103C 241.947 243.103 241.625 243.171 241.416 243.31C 241.277 243.409 241.197 243.536 241.175 243.691C 241.156 243.827 241.194 243.939 241.292 244.032C 241.423 244.158 241.914 244.333 242.767 244.562C 243.618 244.788 244.196 245.066 244.5 245.398C 244.799 245.733 244.906 246.199 244.822 246.795C 244.73 247.446 244.41 248.008 243.862 248.475C 243.316 248.943 242.573 249.176 241.632 249.176C 240.776 249.176 240.129 248.98 239.685 248.587C 239.242 248.197 238.993 247.663 238.935 246.989zM 249.053 241.913L 248.841 243.411L 247.708 243.411L 247.302 246.274C 247.22 246.854 247.182 247.192 247.191 247.288C 247.2 247.383 247.237 247.461 247.305 247.525C 247.373 247.588 247.462 247.62 247.571 247.62C 247.727 247.62 247.957 247.557 248.266 247.438L 248.202 248.896C 247.788 249.083 247.339 249.176 246.849 249.176C 246.551 249.176 246.289 249.119 246.064 249.007C 245.841 248.893 245.686 248.744 245.599 248.565C 245.511 248.384 245.47 248.14 245.469 247.832C 245.465 247.615 245.51 247.172 245.604 246.507L 246.043 243.411L 245.28 243.411L 245.492 241.913L 246.255 241.913L 246.455 240.5L 248.275 239.404L 247.92 241.913L 249.053 241.913zM 252.363 246.756L 253.974 247.069C 253.663 247.756 253.254 248.279 252.744 248.638C 252.235 248.998 251.635 249.176 250.946 249.176C 249.855 249.176 249.105 248.775 248.695 247.966C 248.374 247.32 248.281 246.503 248.421 245.519C 248.588 244.34 248.991 243.418 249.63 242.751C 250.266 242.084 251.001 241.751 251.832 241.751C 252.766 241.751 253.452 242.1 253.893 242.799C 254.333 243.498 254.44 244.567 254.214 246.007L 250.054 246.007C 249.987 246.564 250.058 246.998 250.271 247.306C 250.483 247.616 250.782 247.772 251.163 247.772C 251.422 247.772 251.652 247.692 251.852 247.533C 252.052 247.37 252.224 247.112 252.363 246.756zM 252.727 244.856C 252.792 244.31 252.728 243.897 252.532 243.614C 252.336 243.331 252.068 243.19 251.729 243.19C 251.366 243.19 251.046 243.341 250.768 243.639C 250.49 243.936 250.315 244.342 250.247 244.856L 252.727 244.856zM 255.94 249.016L 254.28 249.016L 255.286 241.913L 256.827 241.913L 256.684 242.922C 257.016 242.445 257.298 242.13 257.529 241.98C 257.762 241.828 258.011 241.751 258.279 241.751C 258.659 241.751 259.004 241.87 259.322 242.107L 258.575 243.744C 258.326 243.541 258.08 243.439 257.841 243.439C 257.607 243.439 257.401 243.509 257.219 243.655C 257.035 243.799 256.873 244.062 256.727 244.441C 256.58 244.82 256.422 245.614 256.25 246.822L 255.94 249.016zM 264.334 245.411L 265.941 246.019C 265.529 247.09 264.985 247.884 264.306 248.405C 263.63 248.923 262.825 249.183 261.896 249.183C 260.746 249.183 259.863 248.738 259.249 247.849C 258.636 246.959 258.437 245.742 258.655 244.2C 258.887 242.568 259.439 241.301 260.311 240.396C 261.183 239.495 262.225 239.043 263.439 239.043C 264.497 239.043 265.308 239.397 265.869 240.107C 266.205 240.525 266.414 241.128 266.5 241.913L 264.702 242.381C 264.673 241.872 264.516 241.471 264.232 241.175C 263.949 240.881 263.574 240.735 263.111 240.735C 262.469 240.735 261.91 240.996 261.437 241.518C 260.964 242.039 260.644 242.883 260.479 244.053C 260.303 245.292 260.373 246.176 260.695 246.702C 261.013 247.229 261.487 247.491 262.117 247.491C 262.583 247.491 263.005 247.324 263.388 246.989C 263.77 246.655 264.085 246.128 264.334 245.411zM 268.157 244.08L 266.694 243.772C 266.961 243.085 267.323 242.578 267.783 242.246C 268.245 241.918 268.881 241.751 269.696 241.751C 270.438 241.751 270.974 241.851 271.309 242.05C 271.642 242.249 271.863 242.5 271.967 242.806C 272.07 243.112 272.065 243.671 271.949 244.489L 271.621 246.683C 271.533 247.306 271.493 247.767 271.506 248.064C 271.516 248.359 271.573 248.678 271.669 249.016L 270.026 249.016C 270.001 248.891 269.973 248.706 269.946 248.462C 269.935 248.35 269.925 248.277 269.918 248.241C 269.59 248.553 269.254 248.786 268.91 248.943C 268.565 249.099 268.209 249.176 267.842 249.176C 267.197 249.176 266.715 248.977 266.4 248.583C 266.083 248.186 265.969 247.683 266.055 247.075C 266.111 246.676 266.247 246.318 266.461 246.002C 266.675 245.687 266.947 245.448 267.274 245.281C 267.603 245.114 268.065 244.968 268.657 244.843C 269.455 244.678 270.015 244.523 270.333 244.381L 270.36 244.194C 270.411 243.831 270.369 243.575 270.234 243.42C 270.099 243.267 269.813 243.19 269.375 243.19C 269.079 243.19 268.84 243.255 268.656 243.388C 268.472 243.519 268.306 243.749 268.157 244.08zM 270.16 245.605C 269.938 245.685 269.587 245.781 269.109 245.893C 268.634 246.005 268.318 246.115 268.16 246.22C 267.919 246.395 267.779 246.615 267.742 246.881C 267.704 247.146 267.759 247.372 267.905 247.565C 268.052 247.756 268.257 247.852 268.526 247.852C 268.826 247.852 269.126 247.74 269.429 247.519C 269.655 247.35 269.816 247.142 269.914 246.895C 269.98 246.735 270.043 246.43 270.107 245.979L 270.16 245.605zM 273.746 249.016L 272.086 249.016L 273.092 241.913L 274.633 241.913L 274.49 242.922C 274.822 242.445 275.104 242.13 275.335 241.98C 275.568 241.828 275.817 241.751 276.085 241.751C 276.464 241.751 276.81 241.87 277.127 242.107L 276.381 243.744C 276.132 243.541 275.886 243.439 275.647 243.439C 275.413 243.439 275.207 243.509 275.025 243.655C 274.841 243.799 274.679 244.062 274.532 244.441C 274.386 244.82 274.228 245.614 274.056 246.822L 273.746 249.016zM 281.828 249.016L 280.287 249.016L 280.435 247.973C 280.121 248.379 279.776 248.681 279.399 248.88C 279.023 249.079 278.658 249.176 278.303 249.176C 277.582 249.176 277.01 248.848 276.59 248.19C 276.17 247.533 276.043 246.615 276.209 245.438C 276.38 244.232 276.759 243.318 277.348 242.692C 277.937 242.066 278.615 241.751 279.379 241.751C 280.079 241.751 280.639 242.082 281.057 242.742L 281.557 239.209L 283.217 239.209L 281.828 249.016zM 277.923 245.311C 277.815 246.068 277.831 246.617 277.968 246.957C 278.165 247.446 278.505 247.692 278.985 247.692C 279.368 247.692 279.719 247.508 280.039 247.139C 280.357 246.772 280.57 246.221 280.674 245.491C 280.789 244.675 280.741 244.087 280.535 243.729C 280.325 243.369 280.018 243.19 279.611 243.19C 279.217 243.19 278.864 243.367 278.547 243.721C 278.231 244.075 278.023 244.605 277.923 245.311z"
         id="path96" />
    </g>
    <g
       id="g98">
      <path
         style="stroke:none; fill:#273785"
         d="M 375.931 218.28L 390.201 218.28C 393.74 218.28 396.785 219.514 399.358 221.99C 401.988 224.539 403.303 227.672 403.303 231.382C 403.303 235.108 402.028 238.225 399.463 240.725C 396.906 243.233 393.813 244.484 390.201 244.484L 375.931 244.484C 372.156 244.484 369.031 243.242 366.547 240.765C 364.071 238.282 362.829 235.157 362.829 231.382C 362.829 227.607 364.071 224.482 366.547 221.998C 369.031 219.522 372.156 218.28 375.931 218.28zM 388.586 231.382C 388.586 227.972 387.327 225.018 384.811 222.509C 382.303 220.009 379.34 218.751 375.931 218.751C 372.383 218.751 369.388 219.968 366.969 222.396C 364.542 224.815 363.324 227.818 363.324 231.382C 363.324 234.946 364.534 237.941 366.953 240.36C 369.372 242.779 372.367 243.988 375.931 243.988C 379.356 243.988 382.319 242.738 384.827 240.254C 387.327 237.762 388.586 234.808 388.586 231.382zM 378.902 237.421L 378.902 225.343C 381.475 226.796 382.757 228.817 382.757 231.382C 382.757 233.931 381.475 235.944 378.902 237.421zM 372.96 225.343L 372.96 237.421C 370.394 235.944 369.104 233.931 369.104 231.382C 369.104 228.817 370.394 226.796 372.96 225.343z"
         id="path100" />
      <g
         id="g102">
        <path
           style="stroke:none; fill:#2c2c2b"
           d="M 358.276 247.352C 358.3 247.249 358.312 247.163 358.312 247.093C 358.312 246.897 358.232 246.772 358.069 246.715C 357.909 246.658 357.685 246.63 357.4 246.63L 357.468 246.339L 360.3 246.339C 360.726 246.339 361.169 246.376 361.632 246.45C 362.095 246.522 362.567 246.679 363.045 246.916C 363.525 247.156 363.926 247.521 364.248 248.01C 364.57 248.5 364.734 249.135 364.74 249.913C 364.74 250.441 364.593 251.01 364.299 251.623C 364.005 252.234 363.508 252.763 362.803 253.205C 362.098 253.648 361.183 253.87 360.055 253.87L 355.3 253.87L 355.372 253.589C 355.703 253.589 355.93 253.569 356.053 253.526C 356.176 253.482 356.256 253.422 356.289 253.347C 356.324 253.271 356.412 253.021 356.557 252.598L 358.276 247.352zM 359.916 247.207L 358.159 252.785C 358.146 252.84 358.12 252.924 358.083 253.04C 358.046 253.154 358.025 253.228 358.019 253.259C 358.027 253.355 358.074 253.426 358.157 253.472C 358.241 253.519 358.384 253.55 358.585 253.565C 358.786 253.58 359.077 253.589 359.457 253.589C 359.928 253.589 360.375 253.52 360.796 253.381C 361.22 253.243 361.632 252.923 362.036 252.423C 362.44 251.923 362.757 251.186 362.983 250.213C 363.076 249.822 363.123 249.413 363.123 248.986C 363.123 248.336 362.999 247.861 362.749 247.559C 362.278 246.94 361.532 246.63 360.513 246.63C 360.346 246.63 360.225 246.667 360.15 246.741C 360.078 246.813 360 246.97 359.916 247.207zM 366.626 252.322L 366.87 252.435C 366.229 253.488 365.557 254.014 364.855 254.014C 364.672 254.014 364.523 253.969 364.414 253.878C 364.303 253.787 364.248 253.665 364.248 253.51C 364.248 253.314 364.337 253.009 364.515 252.599L 365.478 250.42C 365.54 250.26 365.571 250.141 365.571 250.06C 365.571 249.962 365.532 249.913 365.454 249.913C 365.308 249.913 365.124 250.055 364.905 250.337C 364.638 250.697 364.443 250.945 364.318 251.081L 364.06 250.967C 364.465 250.337 364.837 249.879 365.175 249.595C 365.515 249.311 365.806 249.17 366.049 249.17C 366.51 249.191 366.74 249.397 366.74 249.79C 366.74 249.889 366.729 249.988 366.704 250.084C 366.678 250.18 366.643 250.285 366.598 250.401C 366.555 250.514 366.532 250.576 366.53 250.585L 365.571 252.796C 365.56 252.826 365.54 252.873 365.515 252.935C 365.487 252.999 365.466 253.056 365.452 253.103C 365.439 253.154 365.431 253.198 365.431 253.24C 365.431 253.322 365.478 253.364 365.571 253.364C 365.762 253.364 366.114 253.016 366.626 252.322zM 366.647 246.887C 366.836 246.887 366.996 246.949 367.127 247.073C 367.26 247.198 367.326 247.347 367.326 247.517C 367.326 247.687 367.26 247.834 367.129 247.956C 366.998 248.078 366.838 248.139 366.647 248.139C 366.456 248.139 366.288 248.076 366.147 247.954C 366.005 247.832 365.934 247.686 365.934 247.517C 365.934 247.35 366.007 247.202 366.149 247.076C 366.291 246.951 366.457 246.887 366.647 246.887zM 370.902 254.014C 370.52 253.988 370.331 253.847 370.331 253.591C 370.331 253.41 370.383 253.164 370.489 252.847C 370.594 252.532 370.775 252.033 371.031 251.351C 371.062 251.263 371.125 251.121 371.217 250.923C 371.309 250.726 371.377 250.563 371.422 250.432C 371.467 250.302 371.488 250.179 371.488 250.06C 371.488 249.893 371.406 249.81 371.242 249.81C 371.026 249.81 370.768 249.999 370.471 250.38C 370.202 250.683 369.877 251.17 369.497 251.84C 369.118 252.508 368.802 253.186 368.548 253.87L 367.424 253.87L 368.525 250.544C 368.611 250.234 368.654 250.058 368.654 250.017L 368.654 249.996C 368.654 249.938 368.636 249.891 368.599 249.859C 368.564 249.826 368.523 249.81 368.476 249.81C 368.339 249.81 368.156 249.952 367.928 250.234C 367.92 250.246 367.842 250.36 367.691 250.578C 367.541 250.795 367.428 250.96 367.354 251.07L 367.084 250.947C 367.492 250.325 367.84 249.874 368.125 249.592C 368.41 249.311 368.702 249.17 369.005 249.17C 369.395 249.17 369.589 249.404 369.589 249.874C 369.589 250.055 369.563 250.271 369.513 250.527C 369.464 250.779 369.405 251.028 369.343 251.268C 369.278 251.51 369.224 251.713 369.181 251.874L 369.226 251.874C 369.38 251.535 369.589 251.156 369.852 250.74C 370.114 250.323 370.412 249.959 370.75 249.643C 371.088 249.328 371.42 249.17 371.746 249.17C 372.294 249.191 372.567 249.473 372.567 250.017C 372.56 250.167 372.532 250.318 372.486 250.471C 372.439 250.625 372.374 250.805 372.288 251.014C 372.202 251.224 372.144 251.384 372.109 251.494L 371.629 252.661C 371.527 252.872 371.476 253.04 371.476 253.166C 371.476 253.257 371.519 253.301 371.605 253.301C 371.841 253.301 372.202 252.947 372.684 252.237L 372.919 252.362C 372.562 252.928 372.218 253.347 371.885 253.613C 371.553 253.88 371.224 254.014 370.902 254.014zM 376.69 252.195L 376.981 252.341C 376.641 252.837 376.288 253.238 375.921 253.55C 375.554 253.86 375.107 254.014 374.578 254.014C 374.064 254.014 373.678 253.887 373.417 253.631C 373.153 253.376 373.022 253.004 373.022 252.516C 373.022 252.134 373.14 251.747 373.372 251.351C 373.481 251.124 373.637 250.884 373.836 250.632C 374.035 250.378 374.27 250.141 374.537 249.922C 374.804 249.702 375.103 249.521 375.431 249.38C 375.761 249.24 376.101 249.17 376.454 249.17C 376.753 249.17 377.02 249.247 377.256 249.4C 377.492 249.554 377.616 249.767 377.627 250.038C 377.627 250.385 377.444 250.695 377.079 250.965C 376.714 251.236 376.325 251.447 375.914 251.603C 375.502 251.755 375.002 251.919 374.416 252.092C 374.33 252.423 374.287 252.706 374.287 252.94C 374.287 253.319 374.498 253.522 374.92 253.55C 375.418 253.55 376.007 253.098 376.69 252.195zM 374.51 251.752C 374.834 251.663 375.146 251.528 375.445 251.349C 375.743 251.17 375.987 250.958 376.175 250.712C 376.36 250.466 376.454 250.208 376.454 249.932C 376.454 249.805 376.415 249.695 376.335 249.602C 376.255 249.511 376.142 249.459 375.997 249.449C 375.474 249.449 374.978 250.216 374.51 251.752zM 377.147 253.87L 378.272 250.461C 378.289 250.38 378.307 250.299 378.324 250.22C 378.342 250.139 378.359 250.058 378.377 249.977C 378.377 249.908 378.326 249.874 378.223 249.874C 378.034 249.874 377.676 250.26 377.147 251.031L 376.887 250.884C 377.012 250.714 377.131 250.552 377.243 250.399C 377.352 250.246 377.458 250.111 377.557 249.998C 377.993 249.445 378.418 249.17 378.832 249.17C 379.228 249.17 379.443 249.359 379.478 249.74C 379.478 250.018 379.382 250.409 379.195 250.914C 379.005 251.417 378.894 251.761 378.857 251.948L 378.881 251.948C 379.164 251.384 379.433 250.898 379.689 250.495C 379.945 250.091 380.21 249.769 380.485 249.529C 380.761 249.291 381.042 249.17 381.327 249.17C 381.541 249.17 381.717 249.24 381.856 249.38C 381.994 249.519 382.064 249.662 382.064 249.81C 382.055 250.027 381.981 250.184 381.842 250.279C 381.703 250.373 381.553 250.422 381.395 250.422C 381.202 250.422 381.042 250.353 380.914 250.215C 380.798 250.057 380.692 249.977 380.6 249.977C 380.434 249.977 380.194 250.223 379.878 250.714C 379.562 251.205 379.249 251.768 378.943 252.403C 378.637 253.038 378.424 253.527 378.305 253.87L 377.147 253.87zM 382.061 250.38C 382.061 250.125 382.142 249.905 382.305 249.722C 382.469 249.538 382.682 249.4 382.945 249.309C 383.208 249.216 383.48 249.17 383.759 249.17C 384.179 249.189 384.514 249.244 384.768 249.335C 385.02 249.426 385.196 249.529 385.297 249.647C 385.397 249.762 385.447 249.872 385.447 249.977C 385.426 250.299 385.243 250.461 384.897 250.461C 384.558 250.461 384.339 250.299 384.241 249.977C 384.214 249.853 384.192 249.75 384.173 249.668C 384.155 249.583 384.112 249.514 384.046 249.464C 383.978 249.413 383.86 249.387 383.693 249.387C 383.521 249.387 383.376 249.433 383.261 249.526C 383.146 249.617 383.084 249.734 383.072 249.874C 383.072 250.013 383.133 250.16 383.253 250.316C 383.374 250.471 383.568 250.661 383.831 250.884C 384.253 251.234 384.54 251.53 384.692 251.773C 384.844 252.017 384.921 252.264 384.921 252.516C 384.921 253.021 384.729 253.396 384.345 253.644C 383.96 253.89 383.511 254.014 383 254.014C 382.502 254.014 382.056 253.946 381.664 253.808C 381.274 253.67 381.077 253.415 381.077 253.043C 381.077 252.916 381.13 252.796 381.235 252.684C 381.34 252.572 381.463 252.516 381.608 252.516C 381.825 252.516 381.986 252.57 382.096 252.679C 382.205 252.785 382.313 252.944 382.42 253.154C 382.529 253.364 382.637 253.522 382.742 253.629C 382.849 253.734 383.006 253.787 383.212 253.787C 383.31 253.787 383.414 253.749 383.523 253.672C 383.63 253.596 383.718 253.499 383.786 253.382C 383.855 253.266 383.89 253.152 383.89 253.043C 383.89 252.895 383.86 252.759 383.8 252.635C 383.74 252.513 383.663 252.401 383.574 252.305C 383.483 252.207 383.363 252.093 383.212 251.964C 383.06 251.835 382.908 251.702 382.754 251.568C 382.508 251.338 382.33 251.137 382.222 250.967C 382.115 250.798 382.061 250.602 382.061 250.38zM 396.085 249.046C 396.085 248.979 396.089 248.881 396.096 248.748C 396.104 248.617 396.108 248.524 396.108 248.469C 396.108 247.808 395.995 247.31 395.77 246.981C 395.546 246.651 395.161 246.486 394.62 246.486C 394.201 246.486 393.808 246.57 393.443 246.737C 393.078 246.904 392.754 247.126 392.469 247.404C 392.184 247.681 391.937 247.982 391.727 248.309C 391.519 248.636 391.339 248.979 391.185 249.337C 390.827 250.215 390.648 251.041 390.648 251.813C 390.648 252.329 390.788 252.772 391.068 253.138C 391.349 253.506 391.755 253.701 392.288 253.724C 392.908 253.724 393.469 253.505 393.966 253.07C 394.464 252.634 394.903 252.109 395.286 251.494L 395.651 251.626L 394.761 254.014L 394.49 253.952L 394.49 253.868C 394.49 253.801 394.455 253.749 394.384 253.713C 394.316 253.678 394.234 253.66 394.14 253.66C 394.078 253.665 393.925 253.703 393.683 253.772C 393.443 253.842 393.207 253.899 392.975 253.946C 392.742 253.992 392.483 254.014 392.196 254.014C 391.48 254.008 390.876 253.866 390.383 253.589C 389.891 253.312 389.524 252.963 389.285 252.539C 389.045 252.115 388.926 251.685 388.926 251.248C 388.938 250.599 389.104 249.969 389.426 249.358C 389.746 248.748 390.176 248.206 390.712 247.731C 391.249 247.255 391.844 246.882 392.501 246.611C 393.156 246.341 393.812 246.205 394.466 246.205C 395.177 246.205 395.893 246.427 396.612 246.87L 397.043 246.713L 397.209 246.849L 396.483 249.109L 396.085 249.046zM 397.338 247.207C 397.385 247.056 397.41 246.93 397.41 246.827L 397.41 246.734C 397.351 246.634 397.168 246.565 396.857 246.527L 396.906 246.31L 398.825 246.247C 398.396 247.553 398.105 248.436 397.954 248.898C 397.802 249.359 397.611 249.945 397.381 250.652C 397.15 251.359 396.918 252.074 396.684 252.796C 396.635 252.916 396.612 253.026 396.612 253.126C 396.612 253.243 396.659 253.301 396.752 253.301C 397.008 253.301 397.363 252.933 397.818 252.195L 398.125 252.341C 397.849 252.801 397.574 253.156 397.299 253.406C 397.023 253.656 396.783 253.822 396.58 253.899C 396.375 253.976 396.203 254.014 396.063 254.014C 395.858 254.014 395.694 253.975 395.571 253.894C 395.446 253.813 395.38 253.656 395.37 253.427C 395.37 253.364 395.382 253.29 395.405 253.205C 395.427 253.121 395.465 253 395.522 252.842C 395.577 252.684 395.612 252.582 395.628 252.539L 397.338 247.207zM 403.266 249.314L 404.367 249.314L 403.266 252.412C 403.094 252.835 403.009 253.095 403.009 253.188C 403.009 253.264 403.071 253.301 403.196 253.301C 403.532 253.301 403.914 252.94 404.344 252.219L 404.59 252.322C 404.279 252.909 403.973 253.338 403.674 253.608C 403.376 253.878 403.063 254.014 402.739 254.014C 402.222 254.014 401.964 253.777 401.964 253.303C 401.964 253.176 401.988 253.028 402.036 252.861C 402.085 252.695 402.159 252.469 402.261 252.181C 402.36 251.894 402.431 251.675 402.47 251.525L 402.444 251.525C 401.984 252.271 401.632 252.777 401.392 253.043C 401.084 253.376 400.803 253.622 400.551 253.778C 400.299 253.935 400.035 254.014 399.762 254.014C 399.524 254.014 399.334 253.946 399.196 253.808C 399.06 253.67 398.989 253.481 398.989 253.24C 398.989 253.166 398.997 253.092 399.015 253.017C 399.03 252.944 399.054 252.865 399.085 252.779C 399.114 252.692 399.149 252.592 399.19 252.475L 400.174 250.253C 400.219 250.163 400.242 250.07 400.242 249.975C 400.242 249.962 400.231 249.939 400.205 249.913C 400.18 249.886 400.146 249.872 400.102 249.872C 399.897 249.872 399.495 250.216 398.896 250.904L 398.638 250.74C 398.724 250.656 398.88 250.495 399.104 250.256C 399.329 250.017 399.495 249.852 399.598 249.761C 400.045 249.366 400.467 249.17 400.863 249.17C 401.23 249.192 401.416 249.361 401.416 249.676C 401.416 249.813 401.351 250.041 401.226 250.358L 400.126 252.899C 400.11 252.933 400.082 253.037 400.045 253.208C 400.071 253.353 400.153 253.426 400.292 253.426C 400.608 253.426 400.974 253.157 401.392 252.618C 401.82 252.076 402.202 251.496 402.542 250.877C 402.881 250.261 403.122 249.74 403.266 249.314zM 406.489 247.135C 406.534 247.011 406.557 246.909 406.557 246.827C 406.557 246.732 406.511 246.669 406.419 246.632C 406.327 246.598 406.189 246.562 406.009 246.527L 406.03 246.31L 407.951 246.247L 406.63 250.336L 406.651 250.336C 406.882 249.953 407.133 249.662 407.412 249.466C 407.692 249.268 407.957 249.17 408.211 249.17C 408.779 249.17 409.148 249.297 409.32 249.552C 409.492 249.807 409.585 250.13 409.603 250.525C 409.603 250.86 409.503 251.234 409.304 251.644C 409.105 252.053 408.835 252.439 408.498 252.799C 408.158 253.159 407.775 253.452 407.346 253.677C 406.917 253.902 406.487 254.014 406.054 254.014C 405.657 254.014 405.325 253.932 405.06 253.767C 404.795 253.603 404.662 253.355 404.662 253.023C 404.662 252.78 404.738 252.437 404.892 251.992L 406.489 247.135zM 407.926 251.671C 408.209 251.01 408.349 250.506 408.349 250.162C 408.349 250.032 408.307 249.929 408.218 249.853C 408.132 249.776 408.015 249.738 407.869 249.738C 407.592 249.738 407.362 249.84 407.176 250.043C 406.991 250.248 406.784 250.527 406.557 250.883C 406.417 251.127 406.294 251.379 406.192 251.64C 406.091 251.9 406.007 252.143 405.94 252.365C 405.876 252.589 405.785 252.914 405.667 253.343C 405.687 253.639 405.862 253.787 406.194 253.787C 406.419 253.787 406.645 253.673 406.871 253.445C 407.098 253.215 407.303 252.937 407.484 252.609C 407.666 252.283 407.815 251.969 407.926 251.671zM 358.159 256.167C 358.167 256.129 358.188 256.05 358.224 255.933C 358.259 255.814 358.279 255.723 358.279 255.661C 358.279 255.52 358.212 255.422 358.083 255.365C 357.952 255.308 357.716 255.281 357.374 255.281L 357.445 254.99L 361.066 254.99L 360.993 255.281C 360.709 255.281 360.492 255.308 360.344 255.365C 360.195 255.422 360.086 255.508 360.012 255.625C 359.939 255.742 359.86 255.93 359.776 256.188L 358.113 261.229C 358.005 261.556 357.943 261.776 357.925 261.888C 357.937 262.022 358.007 262.114 358.138 262.164C 358.267 262.213 358.501 262.239 358.839 262.239L 358.803 262.52L 355.372 262.52L 355.428 262.239C 355.739 262.213 355.938 262.191 356.027 262.169C 356.115 262.146 356.19 262.088 356.246 261.99C 356.301 261.892 356.373 261.694 356.461 261.394L 358.159 256.167zM 363.744 262.665C 363.362 262.639 363.172 262.497 363.172 262.241C 363.172 262.06 363.225 261.814 363.331 261.497C 363.436 261.182 363.617 260.683 363.873 260.001C 363.904 259.913 363.967 259.771 364.059 259.573C 364.15 259.376 364.219 259.212 364.263 259.082C 364.309 258.953 364.33 258.829 364.33 258.71C 364.33 258.543 364.248 258.46 364.084 258.46C 363.867 258.46 363.609 258.65 363.313 259.03C 363.043 259.333 362.719 259.82 362.339 260.49C 361.96 261.158 361.644 261.836 361.39 262.52L 360.266 262.52L 361.367 259.193C 361.453 258.884 361.496 258.708 361.496 258.667L 361.496 258.646C 361.496 258.588 361.478 258.541 361.441 258.509C 361.406 258.476 361.365 258.46 361.318 258.46C 361.181 258.46 360.998 258.601 360.769 258.884C 360.762 258.896 360.684 259.009 360.533 259.228C 360.383 259.445 360.27 259.61 360.195 259.721L 359.926 259.596C 360.334 258.975 360.682 258.524 360.967 258.241C 361.251 257.961 361.544 257.82 361.847 257.82C 362.237 257.82 362.431 258.054 362.431 258.524C 362.431 258.705 362.405 258.922 362.354 259.177C 362.306 259.43 362.247 259.677 362.184 259.919C 362.12 260.159 362.065 260.363 362.023 260.525L 362.068 260.525C 362.222 260.185 362.431 259.807 362.694 259.39C 362.955 258.973 363.254 258.608 363.592 258.294C 363.93 257.978 364.262 257.82 364.587 257.82C 365.136 257.841 365.409 258.123 365.409 258.667C 365.402 258.816 365.374 258.968 365.327 259.121C 365.28 259.275 365.216 259.456 365.13 259.664C 365.044 259.874 364.986 260.034 364.951 260.144L 364.471 261.311C 364.369 261.521 364.318 261.69 364.318 261.816C 364.318 261.907 364.361 261.952 364.447 261.952C 364.683 261.952 365.044 261.597 365.526 260.888L 365.761 261.012C 365.404 261.578 365.06 261.997 364.726 262.263C 364.395 262.53 364.066 262.665 363.744 262.665zM 367.33 257.964L 367.705 256.951C 368.341 256.715 368.775 256.497 369.003 256.301L 369.097 256.301L 368.499 257.964L 369.507 257.964L 369.343 258.44L 368.314 258.44L 367.33 261.332C 367.309 261.401 367.283 261.477 367.254 261.559C 367.225 261.642 367.205 261.701 367.194 261.738C 367.182 261.774 367.176 261.816 367.176 261.859C 367.176 261.921 367.211 261.952 367.281 261.952C 367.434 261.952 367.607 261.852 367.801 261.65C 367.994 261.451 368.212 261.203 368.455 260.909L 368.724 261.022C 367.945 262.117 367.215 262.665 366.532 262.665C 366.364 262.665 366.224 262.63 366.108 262.561C 365.993 262.492 365.934 262.386 365.934 262.241C 365.934 262.115 365.958 261.992 366.007 261.869L 367.176 258.44L 366.346 258.44L 366.51 257.964L 367.33 257.964zM 372.778 260.845L 373.069 260.991C 372.73 261.487 372.376 261.888 372.01 262.2C 371.642 262.509 371.196 262.665 370.666 262.665C 370.153 262.665 369.766 262.537 369.505 262.281C 369.241 262.026 369.111 261.654 369.111 261.167C 369.111 260.784 369.228 260.397 369.46 260.001C 369.569 259.774 369.725 259.535 369.924 259.282C 370.124 259.028 370.358 258.791 370.625 258.572C 370.893 258.352 371.191 258.171 371.519 258.03C 371.849 257.891 372.189 257.82 372.542 257.82C 372.841 257.82 373.108 257.898 373.345 258.05C 373.581 258.204 373.704 258.417 373.715 258.688C 373.715 259.035 373.532 259.345 373.167 259.615C 372.802 259.886 372.413 260.097 372.002 260.252C 371.59 260.406 371.09 260.569 370.504 260.741C 370.419 261.074 370.375 261.356 370.375 261.59C 370.375 261.969 370.586 262.172 371.008 262.2C 371.506 262.2 372.096 261.748 372.778 260.845zM 370.598 260.402C 370.922 260.313 371.234 260.178 371.533 259.999C 371.832 259.82 372.076 259.608 372.263 259.363C 372.448 259.116 372.542 258.858 372.542 258.583C 372.542 258.455 372.503 258.345 372.423 258.252C 372.343 258.161 372.23 258.109 372.085 258.099C 371.562 258.099 371.066 258.867 370.598 260.402zM 373.235 262.52L 374.36 259.111C 374.377 259.03 374.395 258.949 374.413 258.87C 374.43 258.789 374.448 258.708 374.465 258.627C 374.465 258.558 374.414 258.524 374.311 258.524C 374.122 258.524 373.764 258.91 373.235 259.681L 372.975 259.535C 373.1 259.364 373.22 259.202 373.331 259.049C 373.44 258.896 373.546 258.762 373.645 258.648C 374.081 258.096 374.506 257.82 374.92 257.82C 375.316 257.82 375.531 258.009 375.566 258.39C 375.566 258.669 375.471 259.06 375.283 259.564C 375.094 260.067 374.983 260.411 374.945 260.599L 374.969 260.599C 375.252 260.034 375.521 259.549 375.777 259.146C 376.033 258.741 376.298 258.419 376.574 258.18C 376.849 257.94 377.13 257.82 377.415 257.82C 377.63 257.82 377.805 257.891 377.944 258.03C 378.082 258.169 378.152 258.312 378.152 258.46C 378.143 258.677 378.069 258.834 377.93 258.928C 377.791 259.023 377.641 259.071 377.483 259.071C 377.29 259.071 377.13 259.003 377.003 258.865C 376.886 258.707 376.78 258.627 376.689 258.627C 376.522 258.627 376.283 258.874 375.966 259.364C 375.65 259.855 375.338 260.418 375.031 261.053C 374.725 261.688 374.512 262.177 374.393 262.52L 373.235 262.52zM 381.43 262.665C 381.048 262.639 380.858 262.497 380.858 262.241C 380.858 262.06 380.911 261.814 381.017 261.497C 381.122 261.182 381.303 260.683 381.559 260.001C 381.59 259.913 381.653 259.771 381.745 259.573C 381.836 259.376 381.905 259.212 381.95 259.082C 381.995 258.953 382.016 258.829 382.016 258.71C 382.016 258.543 381.934 258.46 381.77 258.46C 381.553 258.46 381.296 258.65 380.999 259.03C 380.729 259.333 380.405 259.82 380.025 260.49C 379.646 261.158 379.33 261.836 379.076 262.52L 377.952 262.52L 379.053 259.193C 379.138 258.884 379.182 258.708 379.182 258.667L 379.182 258.646C 379.182 258.588 379.164 258.541 379.127 258.509C 379.091 258.476 379.051 258.46 379.004 258.46C 378.867 258.46 378.684 258.601 378.455 258.884C 378.448 258.896 378.369 259.009 378.219 259.228C 378.069 259.445 377.955 259.61 377.882 259.721L 377.612 259.596C 378.02 258.975 378.367 258.524 378.652 258.241C 378.938 257.961 379.23 257.82 379.533 257.82C 379.923 257.82 380.117 258.054 380.117 258.524C 380.117 258.705 380.091 258.922 380.041 259.177C 379.991 259.43 379.933 259.677 379.87 259.919C 379.806 260.159 379.751 260.363 379.709 260.525L 379.753 260.525C 379.908 260.185 380.117 259.807 380.38 259.39C 380.642 258.973 380.94 258.608 381.278 258.294C 381.616 257.978 381.948 257.82 382.274 257.82C 382.822 257.841 383.095 258.123 383.095 258.667C 383.087 258.816 383.06 258.968 383.014 259.121C 382.967 259.275 382.902 259.456 382.816 259.664C 382.73 259.874 382.672 260.034 382.637 260.144L 382.156 261.311C 382.055 261.521 382.004 261.69 382.004 261.816C 382.004 261.907 382.047 261.952 382.133 261.952C 382.369 261.952 382.73 261.597 383.212 260.888L 383.447 261.012C 383.09 261.578 382.746 261.997 382.412 262.263C 382.08 262.53 381.753 262.665 381.43 262.665zM 389.184 261.042C 388.917 261.44 388.671 261.759 388.452 261.995C 388.231 262.23 388.024 262.401 387.831 262.506C 387.638 262.611 387.448 262.665 387.263 262.665C 386.896 262.665 386.714 262.455 386.714 262.034C 386.714 261.955 386.72 261.873 386.732 261.787C 386.742 261.701 386.761 261.599 386.791 261.482C 386.818 261.366 386.847 261.24 386.877 261.105L 386.855 261.105C 386.548 261.621 386.229 262.01 385.895 262.272C 385.559 262.534 385.168 262.665 384.724 262.665C 384.392 262.665 384.11 262.565 383.878 262.367C 383.646 262.169 383.529 261.89 383.529 261.53C 383.529 260.9 383.806 260.206 384.36 259.452C 384.755 258.937 385.196 258.536 385.682 258.25C 386.17 257.963 386.672 257.82 387.193 257.82C 387.341 257.82 387.474 257.841 387.589 257.882C 387.704 257.923 387.839 257.98 387.995 258.052C 388.151 258.124 388.258 258.161 388.319 258.161C 388.399 258.161 388.549 258.047 388.774 257.82L 389.163 257.82L 387.989 261.229C 387.888 261.492 387.837 261.662 387.837 261.735C 387.837 261.88 387.88 261.952 387.966 261.952C 388.144 261.952 388.471 261.604 388.95 260.909L 389.184 261.042zM 387.146 260.175C 387.466 259.495 387.626 258.992 387.626 258.667C 387.626 258.486 387.576 258.335 387.474 258.216C 387.371 258.097 387.247 258.037 387.101 258.037C 386.541 258.052 385.961 258.679 385.365 259.919C 385.253 260.113 385.126 260.409 384.983 260.805C 384.841 261.203 384.771 261.485 384.771 261.652C 384.771 261.805 384.815 261.934 384.903 262.041C 384.991 262.146 385.116 262.2 385.274 262.2C 385.588 262.2 385.918 261.988 386.263 261.564C 386.609 261.141 386.904 260.678 387.146 260.175zM 390.873 257.964L 391.247 256.951C 391.884 256.715 392.317 256.497 392.545 256.301L 392.639 256.301L 392.042 257.964L 393.049 257.964L 392.885 258.44L 391.857 258.44L 390.873 261.332C 390.851 261.401 390.826 261.477 390.796 261.559C 390.767 261.642 390.748 261.701 390.736 261.738C 390.724 261.774 390.718 261.816 390.718 261.859C 390.718 261.921 390.753 261.952 390.824 261.952C 390.976 261.952 391.15 261.852 391.343 261.65C 391.536 261.451 391.755 261.203 391.997 260.909L 392.266 261.022C 391.488 262.117 390.757 262.665 390.074 262.665C 389.906 262.665 389.766 262.63 389.651 262.561C 389.535 262.492 389.477 262.386 389.477 262.241C 389.477 262.115 389.5 261.992 389.549 261.869L 390.718 258.44L 389.889 258.44L 390.053 257.964L 390.873 257.964zM 395.358 260.972L 395.603 261.086C 394.962 262.138 394.291 262.665 393.588 262.665C 393.404 262.665 393.256 262.62 393.147 262.528C 393.035 262.437 392.981 262.315 392.981 262.16C 392.981 261.964 393.071 261.659 393.248 261.249L 394.21 259.07C 394.273 258.91 394.304 258.791 394.304 258.71C 394.304 258.612 394.265 258.564 394.187 258.564C 394.041 258.564 393.857 258.705 393.639 258.987C 393.371 259.347 393.176 259.595 393.051 259.731L 392.793 259.617C 393.198 258.987 393.57 258.529 393.908 258.245C 394.248 257.961 394.539 257.82 394.783 257.82C 395.243 257.841 395.474 258.047 395.474 258.44C 395.474 258.539 395.462 258.638 395.437 258.734C 395.411 258.83 395.376 258.935 395.331 259.051C 395.288 259.165 395.265 259.226 395.263 259.235L 394.304 261.445C 394.293 261.477 394.273 261.523 394.248 261.585C 394.22 261.649 394.199 261.706 394.185 261.754C 394.171 261.804 394.163 261.848 394.163 261.89C 394.163 261.973 394.21 262.014 394.304 262.014C 394.496 262.014 394.847 261.666 395.358 260.972zM 395.38 255.537C 395.569 255.537 395.729 255.599 395.86 255.723C 395.992 255.849 396.059 255.997 396.059 256.167C 396.059 256.338 395.992 256.484 395.862 256.606C 395.731 256.729 395.571 256.788 395.38 256.788C 395.189 256.788 395.021 256.727 394.88 256.604C 394.737 256.482 394.667 256.336 394.667 256.167C 394.667 256 394.74 255.852 394.882 255.726C 395.025 255.601 395.191 255.537 395.38 255.537z"
           id="path104" />
        <path
           style="stroke:none; fill:#2c2c2b"
           d="M 399.636 262.665C 399.253 262.639 399.063 262.497 399.063 262.241C 399.063 262.06 399.116 261.814 399.222 261.497C 399.327 261.182 399.508 260.683 399.764 260.001C 399.796 259.913 399.858 259.771 399.95 259.573C 400.041 259.376 400.11 259.212 400.155 259.082C 400.199 258.953 400.221 258.829 400.221 258.71C 400.221 258.543 400.139 258.46 399.975 258.46C 399.758 258.46 399.501 258.65 399.204 259.03C 398.935 259.333 398.611 259.82 398.23 260.49C 397.851 261.158 397.535 261.836 397.281 262.52L 396.157 262.52L 397.258 259.193C 397.344 258.884 397.386 258.708 397.386 258.667L 397.386 258.646C 397.386 258.588 397.369 258.541 397.332 258.509C 397.297 258.476 397.256 258.46 397.209 258.46C 397.072 258.46 396.889 258.601 396.66 258.884C 396.652 258.896 396.574 259.009 396.424 259.228C 396.274 259.445 396.161 259.61 396.086 259.721L 395.817 259.596C 396.225 258.975 396.573 258.524 396.857 258.241C 397.143 257.961 397.435 257.82 397.738 257.82C 398.128 257.82 398.322 258.054 398.322 258.524C 398.322 258.705 398.297 258.922 398.245 259.177C 398.197 259.43 398.138 259.677 398.076 259.919C 398.011 260.159 397.957 260.363 397.914 260.525L 397.959 260.525C 398.113 260.185 398.322 259.807 398.585 259.39C 398.847 258.973 399.145 258.608 399.483 258.294C 399.821 257.978 400.153 257.82 400.479 257.82C 401.027 257.841 401.301 258.123 401.301 258.667C 401.293 258.816 401.265 258.968 401.218 259.121C 401.171 259.275 401.107 259.456 401.021 259.664C 400.935 259.874 400.877 260.034 400.842 260.144L 400.362 261.311C 400.26 261.521 400.209 261.69 400.209 261.816C 400.209 261.907 400.252 261.952 400.338 261.952C 400.574 261.952 400.935 261.597 401.418 260.888L 401.652 261.012C 401.295 261.578 400.951 261.997 400.617 262.263C 400.285 262.53 399.957 262.665 399.636 262.665zM 407.389 261.042C 407.121 261.44 406.876 261.759 406.657 261.995C 406.436 262.23 406.229 262.401 406.036 262.506C 405.843 262.611 405.654 262.665 405.468 262.665C 405.101 262.665 404.92 262.455 404.92 262.034C 404.92 261.955 404.925 261.873 404.937 261.787C 404.947 261.701 404.967 261.599 404.996 261.482C 405.023 261.366 405.053 261.24 405.082 261.105L 405.06 261.105C 404.754 261.621 404.433 262.01 404.1 262.272C 403.764 262.534 403.374 262.665 402.928 262.665C 402.597 262.665 402.316 262.565 402.083 262.367C 401.851 262.169 401.734 261.89 401.734 261.53C 401.734 260.9 402.011 260.206 402.565 259.452C 402.96 258.937 403.401 258.536 403.887 258.25C 404.375 257.963 404.877 257.82 405.398 257.82C 405.546 257.82 405.679 257.841 405.794 257.882C 405.91 257.923 406.044 257.98 406.2 258.052C 406.356 258.124 406.464 258.161 406.524 258.161C 406.604 258.161 406.755 258.047 406.979 257.82L 407.368 257.82L 406.195 261.229C 406.093 261.492 406.042 261.662 406.042 261.735C 406.042 261.88 406.085 261.952 406.171 261.952C 406.348 261.952 406.677 261.604 407.155 260.909L 407.389 261.042zM 405.351 260.175C 405.671 259.495 405.831 258.992 405.831 258.667C 405.831 258.486 405.78 258.335 405.679 258.216C 405.576 258.097 405.452 258.037 405.306 258.037C 404.746 258.052 404.166 258.679 403.571 259.919C 403.457 260.113 403.331 260.409 403.188 260.805C 403.046 261.203 402.975 261.485 402.975 261.652C 402.975 261.805 403.02 261.934 403.108 262.041C 403.196 262.146 403.321 262.2 403.479 262.2C 403.793 262.2 404.123 261.988 404.469 261.564C 404.814 261.141 405.109 260.678 405.351 260.175zM 409.509 255.857C 409.556 255.706 409.581 255.58 409.581 255.477L 409.581 255.384C 409.523 255.284 409.339 255.215 409.029 255.177L 409.078 254.96L 410.997 254.897C 410.567 256.203 410.276 257.086 410.126 257.548C 409.974 258.009 409.783 258.595 409.552 259.302C 409.321 260.01 409.089 260.724 408.855 261.445C 408.806 261.566 408.783 261.676 408.783 261.776C 408.783 261.893 408.83 261.952 408.924 261.952C 409.179 261.952 409.534 261.583 409.989 260.845L 410.296 260.991C 410.021 261.451 409.745 261.805 409.47 262.057C 409.195 262.306 408.955 262.472 408.752 262.549C 408.547 262.627 408.375 262.665 408.234 262.665C 408.029 262.665 407.865 262.625 407.742 262.544C 407.617 262.463 407.551 262.306 407.541 262.078C 407.541 262.014 407.553 261.94 407.577 261.855C 407.598 261.771 407.637 261.65 407.694 261.492C 407.748 261.334 407.783 261.232 407.799 261.189L 409.509 255.857z"
           id="path106" />
      </g>
    </g>
    <g
       id="g108">
      <g
         id="g110">
        <path
           style="stroke:none; fill:#273785"
           d="M 387.148 185.211L 388.07 186.409L 382.473 186.409C 382.662 186.095 382.748 185.83 382.748 185.601C 382.748 185.44 382.662 184.185 382.473 181.847L 377.853 181.847C 377.683 182.142 377.359 182.769 376.875 183.739C 376.39 184.774 376.153 185.496 376.153 185.886C 376.153 186.029 376.229 186.21 376.371 186.409L 371.867 186.409C 372.009 186.286 372.227 186.029 372.503 185.658C 373.339 184.29 374.67 182.008 376.485 178.834C 377.473 177.038 378.776 174.501 380.41 171.241C 380.562 170.937 380.638 170.738 380.638 170.623C 380.638 170.509 380.581 170.395 380.467 170.262L 385.837 170.262L 385.561 170.68L 387.148 185.211zM 378.823 179.613L 382.254 179.613L 381.665 174.216L 378.823 179.613z"
           id="path112" />
        <path
           style="stroke:none; fill:#273785"
           d="M 388.231 170.509C 387.548 170.509 387.205 170.851 387.205 171.517C 387.205 172.239 387.548 172.6 388.231 172.6C 388.963 172.6 389.324 172.239 389.324 171.517C 389.324 170.851 388.963 170.509 388.231 170.509z"
           id="path114" />
        <path
           style="stroke:none; fill:#273785"
           d="M 388.231 170.262C 389.106 170.262 389.543 170.68 389.543 171.517C 389.543 172.352 389.106 172.771 388.231 172.771C 387.405 172.771 386.987 172.352 386.987 171.517C 386.987 170.68 387.405 170.262 388.231 170.262z"
           id="path116" />
        <path
           style="stroke:none; fill:#273785"
           d="M 387.899 171.07L 387.899 171.46L 388.231 171.46C 388.422 171.46 388.517 171.384 388.517 171.241C 388.498 171.127 388.403 171.07 388.231 171.07L 387.899 171.07z"
           id="path118" />
        <path
           style="stroke:none; fill:#273785"
           d="M 387.899 172.21L 387.652 172.21L 387.652 170.898L 388.231 170.898C 388.574 170.898 388.735 171.013 388.735 171.241C 388.735 171.402 388.602 171.517 388.346 171.573C 388.422 171.612 388.517 171.725 388.621 171.934L 388.793 172.21L 388.574 172.21L 388.459 172.049C 388.327 171.763 388.203 171.63 388.07 171.63L 387.899 171.63L 387.899 172.21z"
           id="path120" />
        <path
           style="stroke:none; fill:#273785"
           d="M 348.952 170.262L 354.236 170.262L 343.801 186.409L 339.429 186.409L 338.621 173.855C 338.564 172.818 338.108 172.096 337.253 171.706L 334.278 170.262L 343.183 170.262L 343.573 182.123L 349.171 172.381C 349.36 172.049 349.446 171.716 349.446 171.402C 349.446 170.994 349.284 170.613 348.952 170.262z"
           id="path122" />
        <path
           style="stroke:none; fill:#273785"
           d="M 355.434 170.262L 361.26 170.262C 361.013 170.453 360.708 170.832 360.337 171.402L 356.299 184.461C 356.223 184.707 356.184 185.05 356.184 185.496C 356.184 185.734 356.318 186.038 356.574 186.409L 350.701 186.409C 350.948 186.134 351.234 185.715 351.565 185.154L 355.548 172.096C 355.624 171.839 355.662 171.536 355.662 171.183C 355.662 170.975 355.586 170.67 355.434 170.262z"
           id="path124" />
        <path
           style="stroke:none; fill:#273785"
           d="M 359.672 184.936L 359.672 182.008C 362.067 183.501 363.968 184.242 365.375 184.242C 366.06 184.242 366.677 184.042 367.228 183.643C 367.78 183.244 368.045 182.75 368.045 182.18C 368.045 181.438 367.504 180.697 366.411 179.956C 364.586 178.73 363.569 178.016 363.341 177.837C 362.267 176.781 361.725 175.518 361.725 174.044C 361.725 172.828 362.438 171.745 363.845 170.822C 365.204 169.93 366.716 169.483 368.387 169.483C 370.374 169.483 372.142 169.958 373.7 170.898L 373.12 173.911C 371.153 172.78 369.661 172.21 368.664 172.21C 367.143 172.21 366.382 172.838 366.382 174.101C 366.382 174.662 366.915 175.309 367.998 176.049C 369.681 177.237 370.668 177.97 370.944 178.226C 372.019 179.243 372.56 180.364 372.56 181.563C 372.56 182.94 371.837 184.176 370.402 185.269C 368.968 186.362 367.38 186.912 365.65 186.912C 363.778 186.912 361.782 186.257 359.672 184.936z"
           id="path126" />
      </g>
      <path
         style="stroke:none; fill:#273785"
         d="M 330.349 157.257L 394.486 157.257L 394.486 167.651L 330.349 167.651L 330.349 157.257z"
         id="path128" />
      <path
         style="stroke:none; fill:#ef7e20"
         d="M 330.349 188.439L 394.486 188.439L 394.486 198.833L 330.349 198.833L 330.349 188.439z"
         id="path130" />
    </g>
    <g
       id="g132">
      <g
         id="g134">
        <path
           style="stroke:none; fill:#e21c2a"
           d="M 297.326 246.312L 322.409 246.312L 323.163 246.312L 323.163 247.57L 296.901 247.57L 297.326 246.312zM 305.359 220.07L 304.934 221.327L 319.869 221.327C 321.048 220.951 322.3 220.746 323.598 220.746C 323.629 220.746 323.659 220.748 323.69 220.748L 323.69 220.07L 305.359 220.07zM 303.994 223.988L 303.57 225.246C 307.106 225.246 310.641 225.246 314.176 225.246C 314.57 224.797 314.995 224.377 315.449 223.988C 311.631 223.988 307.812 223.988 303.994 223.988zM 302.828 227.843L 302.404 229.1C 305.606 229.1 308.807 229.1 312.006 229.1C 312.177 228.67 312.371 228.25 312.587 227.843C 309.336 227.843 306.084 227.843 302.828 227.843zM 301.661 231.762L 301.236 233.019C 304.567 233.019 307.9 233.019 311.228 233.019C 311.26 232.595 311.314 232.174 311.388 231.762C 308.147 231.762 304.903 231.762 301.661 231.762zM 300.429 235.681L 300.004 236.939C 303.829 236.939 307.655 236.939 311.478 236.939C 311.389 236.526 311.319 236.107 311.271 235.681C 307.658 235.681 304.043 235.681 300.429 235.681zM 299.79 239.401L 299.366 240.658C 304.076 240.658 308.787 240.658 313.495 240.658C 313.258 240.253 313.045 239.833 312.853 239.401C 308.499 239.401 304.144 239.401 299.79 239.401zM 299.415 243.254L 298.992 244.512C 305.191 244.512 311.389 244.512 317.586 244.512C 317.084 244.129 316.612 243.708 316.174 243.254C 310.588 243.254 305.002 243.254 299.415 243.254z"
           id="path136" />
        <path
           style="stroke:none; fill:#e21c2a"
           d="M 316.178 243.286L 331.012 243.286C 328.941 244.851 326.374 245.78 323.598 245.78C 320.821 245.78 318.249 244.851 316.178 243.286zM 315.101 242.373C 314.198 241.515 313.419 240.521 312.802 239.426C 319.998 239.426 327.192 239.426 334.388 239.426C 333.77 240.521 332.994 241.515 332.091 242.373C 326.427 242.373 320.765 242.373 315.101 242.373zM 312.337 238.514C 311.91 237.587 311.593 236.6 311.402 235.567C 319.531 235.567 327.661 235.567 335.79 235.567C 335.598 236.6 335.282 237.587 334.855 238.514C 327.348 238.514 319.843 238.514 312.337 238.514zM 311.268 234.655C 311.217 234.198 311.191 233.733 311.191 233.264C 311.191 232.737 311.223 232.218 311.286 231.708C 319.494 231.708 327.699 231.708 335.906 231.708C 335.969 232.218 336.004 232.737 336.004 233.264C 336.004 233.733 335.976 234.198 335.925 234.655C 327.706 234.655 319.487 234.655 311.268 234.655zM 311.434 230.796C 311.64 229.762 311.971 228.775 312.414 227.849C 319.869 227.849 327.323 227.849 334.778 227.849C 335.221 228.775 335.553 229.762 335.759 230.796C 327.651 230.796 319.542 230.796 311.434 230.796zM 312.9 226.936C 313.543 225.836 314.347 224.842 315.28 223.989C 320.825 223.989 326.367 223.989 331.912 223.989C 332.845 224.842 333.646 225.836 334.29 226.936C 327.159 226.936 320.03 226.936 312.9 226.936zM 316.401 223.078C 318.433 221.611 320.919 220.746 323.598 220.746C 326.276 220.746 328.758 221.611 330.789 223.078L 316.401 223.078z"
           id="path138" />
        <path
           style="stroke:none; fill:#e21c2a"
           d="M 335.535 231.459C 335.329 230.426 334.998 229.438 334.554 228.513C 339.134 228.513 344.597 228.513 349.178 228.513L 348.183 231.459C 344.261 231.459 339.457 231.459 335.535 231.459zM 343.022 247.598L 343.971 243.949L 326.809 243.949C 324.737 245.515 323.497 246.443 320.721 246.443L 319.897 247.598L 343.022 247.598zM 344.279 243.036L 345.273 240.09C 341.863 240.09 337.131 240.09 333.722 240.09C 333.104 241.185 331.886 242.178 330.983 243.036C 334.826 243.036 340.436 243.036 344.279 243.036zM 345.58 239.178L 346.575 236.231C 343.199 236.231 338.941 236.231 335.566 236.231C 335.374 237.263 334.616 238.251 334.189 239.178C 337.544 239.178 342.225 239.178 345.58 239.178zM 346.882 235.318L 347.877 232.371C 344.105 232.371 339.451 232.371 335.682 232.371C 335.745 232.882 335.78 233.4 335.78 233.927C 335.78 234.396 335.753 234.862 335.701 235.318C 339.133 235.318 343.45 235.318 346.882 235.318zM 349.485 227.6L 350.479 224.653C 344.51 224.653 338.099 224.653 332.13 224.653C 333.063 225.506 333.864 226.499 334.509 227.6C 339.354 227.6 344.639 227.6 349.485 227.6zM 350.787 223.741L 351.781 220.794L 324.203 220.794L 324.259 221.41C 326.937 221.41 328.976 222.275 331.007 223.741L 350.787 223.741z"
           id="path140" />
      </g>
      <path
         style="stroke:none; fill:#2c2c2b"
         d="M 294.734 264.004C 294.895 263.072 295.005 262.313 295.068 261.724C 295.932 262.27 296.762 262.542 297.561 262.542C 297.881 262.542 298.194 262.483 298.496 262.364C 298.802 262.244 299.043 262.076 299.221 261.859C 299.402 261.64 299.521 261.398 299.579 261.128C 299.624 260.921 299.633 260.733 299.606 260.566C 299.557 260.341 299.449 260.106 299.277 259.862C 299.065 259.523 298.675 258.971 298.11 258.196C 297.84 257.823 297.656 257.556 297.557 257.4C 297.333 257.048 297.171 256.734 297.072 256.456C 296.971 256.18 296.916 255.901 296.907 255.625C 296.897 255.348 296.924 255.056 296.992 254.744C 297.116 254.17 297.365 253.627 297.738 253.122C 298.109 252.618 298.588 252.222 299.173 251.936C 299.757 251.652 300.447 251.51 301.241 251.51C 301.958 251.51 302.739 251.617 303.587 251.833C 303.474 252.47 303.368 253.198 303.265 254.019C 302.565 253.652 301.883 253.467 301.224 253.467C 300.735 253.467 300.304 253.602 299.932 253.875C 299.56 254.147 299.336 254.464 299.258 254.825C 299.236 254.925 299.224 255.026 299.224 255.135C 299.221 255.242 299.232 255.346 299.254 255.446C 299.276 255.546 299.327 255.677 299.401 255.841C 299.479 256.004 299.602 256.192 299.77 256.411C 299.938 256.628 300.085 256.803 300.209 256.938L 300.912 257.967C 301.093 258.205 301.252 258.44 301.39 258.667C 301.526 258.893 301.638 259.109 301.726 259.319C 301.811 259.526 301.873 259.726 301.907 259.915C 301.939 260.106 301.953 260.3 301.949 260.498C 301.944 260.698 301.917 260.909 301.87 261.128C 301.758 261.643 301.555 262.129 301.262 262.583C 300.968 263.041 300.606 263.414 300.178 263.709C 299.748 264.004 299.304 264.208 298.844 264.321C 298.384 264.433 297.911 264.49 297.426 264.49C 297.106 264.49 296.742 264.455 296.331 264.39C 295.921 264.321 295.388 264.192 294.734 264.004zM 310.315 251.51C 311.059 251.51 311.75 251.635 312.38 251.887C 313.012 252.137 313.531 252.548 313.939 253.113C 314.346 253.681 314.603 254.338 314.712 255.091C 314.817 255.847 314.763 256.726 314.546 257.729C 314.341 258.673 314.019 259.573 313.578 260.435C 313.136 261.294 312.581 262.035 311.911 262.659C 311.241 263.28 310.487 263.741 309.654 264.039C 308.824 264.34 307.984 264.49 307.138 264.49C 306.336 264.49 305.597 264.352 304.919 264.076C 304.241 263.8 303.699 263.37 303.294 262.781C 302.887 262.195 302.652 261.517 302.587 260.755C 302.521 259.993 302.584 259.168 302.776 258.28C 302.987 257.306 303.332 256.377 303.812 255.486C 304.293 254.6 304.875 253.865 305.56 253.282C 306.242 252.701 306.99 252.259 307.803 251.962C 308.616 251.661 309.453 251.51 310.315 251.51zM 309.77 253.467C 309.014 253.467 308.312 253.681 307.659 254.107C 307.006 254.53 306.46 255.113 306.016 255.85C 305.575 256.588 305.26 257.387 305.075 258.243C 304.902 259.04 304.88 259.773 305.009 260.442C 305.135 261.112 305.445 261.623 305.932 261.978C 306.422 262.329 306.994 262.505 307.649 262.505C 308.144 262.505 308.64 262.402 309.135 262.191C 309.63 261.984 310.088 261.667 310.509 261.241C 310.928 260.818 311.285 260.304 311.579 259.704C 311.876 259.102 312.093 258.478 312.233 257.829C 312.365 257.224 312.417 256.641 312.391 256.085C 312.363 255.527 312.239 255.048 312.016 254.646C 311.793 254.245 311.482 253.95 311.086 253.755C 310.689 253.564 310.251 253.467 309.77 253.467zM 313.412 264.27C 313.963 262.427 314.525 260.373 315.105 258.111C 315.686 255.847 316.198 253.721 316.645 251.729C 317.152 251.742 317.576 251.748 317.916 251.748C 318.148 251.748 318.518 251.742 319.025 251.729C 318.722 252.833 318.389 254.088 318.031 255.496L 317.081 259.181C 316.807 260.235 316.547 261.282 316.304 262.323L 317.591 262.341C 318.8 262.341 319.598 262.335 319.98 262.327C 320.363 262.32 320.741 262.301 321.118 262.276C 320.941 262.878 320.759 263.543 320.566 264.27C 319.252 264.258 318.128 264.252 317.193 264.252L 314.826 264.261L 313.412 264.27zM 320.579 264.27C 321.13 262.427 321.692 260.373 322.272 258.111C 322.853 255.847 323.365 253.721 323.812 251.729C 324.319 251.742 324.743 251.748 325.084 251.748C 325.315 251.748 325.685 251.742 326.192 251.729C 325.889 252.833 325.556 254.088 325.198 255.496L 324.248 259.181C 323.974 260.235 323.714 261.282 323.471 262.323L 324.758 262.341C 325.967 262.341 326.766 262.335 327.147 262.327C 327.53 262.32 327.908 262.301 328.285 262.276C 328.108 262.878 327.926 263.543 327.733 264.27C 326.419 264.258 325.295 264.252 324.36 264.252L 321.993 264.261L 320.579 264.27zM 336.387 251.51C 337.132 251.51 337.822 251.635 338.452 251.887C 339.084 252.137 339.603 252.548 340.011 253.113C 340.418 253.681 340.676 254.338 340.785 255.091C 340.89 255.847 340.835 256.726 340.618 257.729C 340.414 258.673 340.091 259.573 339.65 260.435C 339.208 261.294 338.653 262.035 337.983 262.659C 337.313 263.28 336.559 263.741 335.726 264.039C 334.895 264.34 334.056 264.49 333.21 264.49C 332.409 264.49 331.67 264.352 330.991 264.076C 330.313 263.8 329.771 263.37 329.365 262.781C 328.959 262.195 328.724 261.517 328.659 260.755C 328.593 259.993 328.657 259.168 328.849 258.28C 329.06 257.306 329.404 256.377 329.884 255.486C 330.365 254.6 330.947 253.865 331.632 253.282C 332.314 252.701 333.063 252.259 333.875 251.962C 334.689 251.661 335.526 251.51 336.387 251.51zM 335.842 253.467C 335.086 253.467 334.384 253.681 333.731 254.107C 333.078 254.53 332.532 255.113 332.088 255.85C 331.647 256.588 331.333 257.387 331.147 258.243C 330.975 259.04 330.952 259.773 331.081 260.442C 331.208 261.112 331.518 261.623 332.004 261.978C 332.494 262.329 333.066 262.505 333.722 262.505C 334.216 262.505 334.712 262.402 335.207 262.191C 335.702 261.984 336.161 261.667 336.581 261.241C 337 260.818 337.357 260.304 337.651 259.704C 337.948 259.102 338.165 258.478 338.306 257.829C 338.437 257.224 338.488 256.641 338.463 256.085C 338.435 255.527 338.311 255.048 338.088 254.646C 337.865 254.245 337.555 253.95 337.159 253.755C 336.762 253.564 336.324 253.467 335.842 253.467z"
         id="path142" />
    </g>
  </g>
</svg>
